<?xml version="1.0" encoding="UTF-8"?>
<!DOCTYPE svg PUBLIC "-//W3C//DTD SVG 1.1 Tiny//EN" "http://www.w3.org/Graphics/SVG/1.1/DTD/svg11-tiny.dtd">
<svg baseProfile="tiny" height="60px" version="1.1" viewBox="0 0 60 60" width="60px" x="0px" xmlns="http://www.w3.org/2000/svg" xmlns:xlink="http://www.w3.org/1999/xlink" y="0px">
<g>
<g>
<rect fill="none" fill-opacity="0.5" height="60" stroke-opacity="0.5" width="60"/>
</g>
<path d="M17.838,51.925l-0.074-0.004c-0.275-0.017-1.043-0.131-2.229-0.8c-1.766-0.98-2.789-2.374-3.611-3.604   c-0.762-1.151-1.576-3.451-1.576-6.459c0-3.725,1.201-11.172,9.236-19.213c7.984-7.985,15.42-9.177,19.145-9.177   c3.543,0,5.801,0.998,6.576,1.59c1.24,0.95,2.102,1.742,3.629,3.679c0.525,0.66,0.68,1.279,0.713,1.681l0.006,0.076l-0.006,0.077   l-0.021,0.348c-0.104,1.643-1.523,3.623-4.465,6.224c-3.705,3.256-5.818,3.675-6.379,3.724l-0.279,0.025l-0.252-0.123   c-0.352-0.173-0.914-0.555-1.586-1.398c-0.428-0.543-0.996-1.594-1.303-3.558l-0.141-0.844l-0.143-0.839l-0.852,0.005l-0.842,0.007   c-4.797,0.021-12.287,7.51-12.332,12.326l-0.004,0.851l-0.004,0.857l0.85,0.136l0.832,0.133c1.426,0.229,2.666,0.694,3.588,1.347   c0.926,0.647,1.275,1.212,1.406,1.573l0.063,0.175l-0.004,0.187c-0.043,1.769-2.037,4.62-3.732,6.526   c-2.584,2.918-4.533,4.339-6.137,4.47L17.838,51.925L17.838,51.925z" fill="#47C30E"/>
</g>
</svg>
