<?xml version="1.0" encoding="utf-8"?>
<!-- Generator: Adobe Illustrator 14.0.0, SVG Export Plug-In  -->
<!DOCTYPE svg PUBLIC "-//W3C//DTD SVG 1.1//EN" "http://www.w3.org/Graphics/SVG/1.1/DTD/svg11.dtd" [
	<!ENTITY ns_flows "http://ns.adobe.com/Flows/1.0/">
]>
<svg version="1.1"
	 xmlns="http://www.w3.org/2000/svg" xmlns:xlink="http://www.w3.org/1999/xlink" xmlns:a="http://ns.adobe.com/AdobeSVGViewerExtensions/3.0/"
	 x="0px" y="0px" width="30px" height="30px" viewBox="0 0 30 30" enable-background="new 0 0 30 30" xml:space="preserve">
<defs>
</defs>
<g opacity="0.5">
	<rect fill="none" width="30" height="30"/>
</g>
<path d="M12.794,12.168c1.569-1.567,4.066-3.208,5.188-3.79c0,0.001,0,0.003,0,0.004c0.002-0.001,0.005-0.006,0.006-0.008
	l1.278,2.142c0.183,0.313,0.589,0.408,0.952,0.256l7.36-4.248c0.384-0.22,0.532-0.68,0.333-1.022c0,0-0.202-0.305-0.818-1.062
	c0.002,0.001,0.004,0.003,0.005,0.005c-0.001-0.002-0.001-0.005-0.003-0.008c-0.311-0.383-0.349-0.397-0.75-0.765
	c-1.205-1.103-2.531-1.536-2.531-1.536c-0.513-0.182-2.24-0.282-4.416,0.374s-7.119,3.823-10.3,7.005
	c-3.18,3.183-5.9,7.49-6.42,8.854c-0.814,2.148-0.74,4.517-0.563,5.205c0,0,0.169,0.513,0.56,1.211
	c0.005,0.007,0.01,0.016,0.015,0.024c0.038,0.068,0.076,0.136,0.119,0.207c0.001,0.002,0.004,0.001,0.005,0.002
	c0.21,0.35,0.464,0.729,0.783,1.114c0.374,0.449,0.392,0.578,0.785,0.925c0.001,0,0.002,0,0.003,0
	c0.723,0.636,1.021,0.83,1.021,0.83c0.345,0.224,0.827,0.103,1.08-0.268l4.794-7.042c0.254-0.372,0.186-0.856-0.158-1.078
	l-2.725-1.743c-0.01-0.001-0.019-0.001-0.027-0.003c0.002-0.002,0.008-0.01,0.008-0.01C9.644,15.562,11.162,13.803,12.794,12.168z"
	/>
<path d="M22.5,16c-3.59,0-6.5,2.91-6.5,6.5s2.91,6.5,6.5,6.5s6.5-2.91,6.5-6.5S26.09,16,22.5,16z M27,24h-9v-3h9V24z"/>
</svg>
