<?xml version="1.0" encoding="utf-8"?>
<!-- Generator: Adobe Illustrator 14.0.0, SVG Export Plug-In  -->
<!DOCTYPE svg PUBLIC "-//W3C//DTD SVG 1.1//EN" "http://www.w3.org/Graphics/SVG/1.1/DTD/svg11.dtd" [
	<!ENTITY ns_flows "http://ns.adobe.com/Flows/1.0/">
]>
<svg version="1.1"
	 xmlns="http://www.w3.org/2000/svg" xmlns:xlink="http://www.w3.org/1999/xlink" xmlns:a="http://ns.adobe.com/AdobeSVGViewerExtensions/3.0/"
	 x="0px" y="0px" width="30px" height="30px" viewBox="0 0 30 30" enable-background="new 0 0 30 30" xml:space="preserve">
<defs>
</defs>
<g opacity="0.5">
	<rect fill="none" width="30" height="30"/>
</g>
<path d="M28.578,7.523l-7.359,4.248c-0.364,0.152-0.771,0.057-0.953-0.256l-1.277-2.142c-0.002,0.002-0.006,0.007-0.007,0.008
	c-0.001-0.001,0-0.003-0.001-0.004c-1.119,0.582-3.617,2.223-5.187,3.79c-1.632,1.635-3.149,3.394-4.417,5.576
	c0,0-0.006,0.008-0.008,0.01c0.009,0.002,0.018,0.002,0.027,0.003l2.725,1.743c0.344,0.222,0.412,0.706,0.158,1.078L7.486,28.62
	c-0.254,0.37-0.736,0.491-1.081,0.268c0,0-0.298-0.194-1.021-0.83c-0.001,0-0.002,0-0.003,0c-0.394-0.347-0.411-0.476-0.785-0.925
	c-0.319-0.385-0.573-0.765-0.783-1.114c-0.001-0.001-0.004,0-0.005-0.002c-0.043-0.071-0.081-0.139-0.119-0.207
	c-0.005-0.009-0.01-0.018-0.015-0.024c-0.391-0.698-0.56-1.211-0.56-1.211c-0.178-0.688-0.252-3.057,0.563-5.205
	c0.52-1.364,3.24-5.672,6.42-8.854c3.181-3.182,8.125-6.349,10.3-7.005c2.176-0.656,3.903-0.556,4.417-0.374
	c0,0,1.326,0.434,2.53,1.536c0.401,0.367,0.439,0.382,0.751,0.765c0.002,0.003,0,0.006,0.002,0.008
	c-0.002-0.002-0.002-0.004-0.004-0.005c0.615,0.757,0.818,1.062,0.818,1.062C29.111,6.844,28.961,7.304,28.578,7.523z"/>
</svg>
