<?xml version="1.0" encoding="UTF-8"?>
<!DOCTYPE svg PUBLIC "-//W3C//DTD SVG 1.1 Tiny//EN" "http://www.w3.org/Graphics/SVG/1.1/DTD/svg11-tiny.dtd">
<svg baseProfile="tiny" height="60px" version="1.1" viewBox="0 0 60 60" width="60px" x="0px" xmlns="http://www.w3.org/2000/svg" xmlns:xlink="http://www.w3.org/1999/xlink" y="0px">
<g>
<rect fill="none" fill-opacity="0.5" height="60" stroke-opacity="0.5" width="60"/>
<g>
<path d="M30.896,14.575h-4.929c-0.291,0-0.618,0.109-0.91,0.277l6.839,10.611v-9.889    C31.896,15.024,31.445,14.575,30.896,14.575z M36.33,20.429c-0.69,0-1.25,0.561-1.25,1.25v8.729l2.498,3.877V21.679    C37.578,20.989,37.019,20.429,36.33,20.429z M19.757,22.667H14.83c-0.55,0-1,0.449-1,1v13.994c0,0.551,0.45,1,1,1h4.927    l4.621,6.342c0.324,0.445,1.039,0.809,1.589,0.809h4.929c0.55,0,1-0.449,1-1v-7.35L21.058,20.646L19.757,22.667z" fill="#666666"/>
<polygon fill="#666666" points="15.071,7.665 17.171,6.31 46.171,51.308 44.071,52.663 15.071,7.665   "/>
</g>
</g>
</svg>
