<?xml version="1.0" encoding="utf-8"?>
<!-- Generator: Adobe Illustrator 13.0.2, SVG Export Plug-In . SVG Version: 6.00 Build 14948)  -->
<!DOCTYPE svg PUBLIC "-//W3C//DTD SVG 1.1 Tiny//EN" "http://www.w3.org/Graphics/SVG/1.1/DTD/svg11-tiny.dtd">
<svg version="1.1" baseProfile="tiny" id="Layer_1" xmlns="http://www.w3.org/2000/svg" xmlns:xlink="http://www.w3.org/1999/xlink"
	 x="0px" y="0px" width="60px" height="60px" viewBox="0 0 60 60" xml:space="preserve">
<g>
	<rect fill="none" width="60" height="60"/>
	<path fill="#666666" d="M45.047,10.296h-29c-2.75,0-5,2.25-5,5v5.702h5.676v3h-5.676v5.798h5.676v3h-5.676v5.798h5.676v3h-5.676
		v6.702c0,2.75,2.25,5,5,5h29c2.75,0,5-2.25,5-5v-33C50.047,12.546,47.797,10.296,45.047,10.296z M41.804,25.414
		c-0.059,0.947-0.776,1.983-2.33,3.355c-1.459,1.284-2.816,2.008-3.646,1.931c-0.219-0.066-0.656-0.258-1.177-0.91
		c-0.352-0.448-0.599-1.104-0.731-1.953l-0.068-0.403l-0.41,0.002c-2.037,0.01-5.48,3.454-5.499,5.502l-0.003,0.41l0.405,0.064
		c0.85,0.136,1.485,0.412,1.943,0.734c0.976,0.683,0.917,1.308,0.917,1.308c0,1.237-1.479,3.006-1.934,3.518
		c-1.375,1.554-2.402,2.273-3.34,2.332c0,0-0.506,0.045-1.388-0.448c-0.977-0.543-1.526-1.315-1.921-1.904
		c-0.383-0.577-0.847-1.771-0.847-3.404c0-2.526,1.015-6.053,4.624-9.666c5.945-5.944,11.697-4.81,13.119-3.722
		c0.662,0.506,1.114,0.941,1.847,1.868C41.938,24.753,41.805,25.414,41.804,25.414z"/>
</g>
</svg>
