<?xml version="1.0" encoding="UTF-8"?>
<!DOCTYPE svg PUBLIC "-//W3C//DTD SVG 1.1 Tiny//EN" "http://www.w3.org/Graphics/SVG/1.1/DTD/svg11-tiny.dtd">
<svg baseProfile="tiny" height="60" viewBox="0 0 60 60" width="60" xmlns="http://www.w3.org/2000/svg" xmlns:xlink="http://www.w3.org/1999/xlink">
<g>
<linearGradient gradientTransform="matrix(0.2118 0.9773 -0.9773 0.2118 -634.5609 -270.4865)" gradientUnits="userSpaceOnUse" id="SVGID_1_" x1="423.0967" x2="429.6524" y1="-578.646" y2="-582.9078">
<stop offset="0" style="stop-color:#A7E722"/>
<stop offset="0.1333" style="stop-color:#A7E722"/>
<stop offset="0.6303" style="stop-color:#428C0F"/>
<stop offset="1" style="stop-color:#5CA617"/>
</linearGradient>
<path d="M19.081,33.91c2.089-3.595,4.591-6.496,7.281-9.188c2.593-2.591,6.72-5.3,8.562-6.256l9.604-10.282  c-0.845-0.3-3.693-0.464-7.279,0.616c-3.586,1.083-11.736,6.303-16.979,11.547c-5.242,5.246-9.727,12.347-10.581,14.595  c-1.343,3.541-1.221,7.445-0.929,8.58c0,0,0.34,1.035,1.144,2.377C10.248,46.475,19.081,33.91,19.081,33.91z" fill="url(#SVGID_1_)"/>
<path d="M31.184,20.8c1.488-1.036,2.87-1.882,3.74-2.334L44.271,8.46  c-0.132-0.058-0.209-0.088-0.209-0.088c-0.247-0.088-0.642-0.162-1.124-0.219c-0.793,0.006-1.596,0.093-2.401,0.27  C34.843,9.673,31.019,14.958,31.184,20.8z" fill="#020202" fill-opacity="0.05" stroke-opacity="0.05"/>
<path d="M31.906,20.306c1.205-0.809,2.291-1.462,3.018-1.84l9.377-10.04  c-0.146-0.063-0.233-0.098-0.233-0.098c-0.231-0.08-0.604-0.152-1.06-0.203c-0.751,0.006-1.51,0.087-2.27,0.253  C35.275,9.576,31.636,14.695,31.906,20.306z" fill="#020202" fill-opacity="0.1" stroke-opacity="0.1"/>
<path d="M44.079,8.263c-0.21-0.073-0.55-0.137-0.962-0.186c-0.681,0.006-1.369,0.08-2.06,0.231  c-5.087,1.116-8.426,5.984-7.978,11.233c0.725-0.455,1.363-0.826,1.844-1.076l9.424-10.088C44.178,8.302,44.079,8.263,44.079,8.263z  " fill="#020202" fill-opacity="0.1" stroke-opacity="0.1"/>
<radialGradient cx="40.9697" cy="9.21" gradientUnits="userSpaceOnUse" id="SVGID_2_" r="12.2872">
<stop offset="0" style="stop-color:#A7E722"/>
<stop offset="0.6242" style="stop-color:#428C0F"/>
<stop offset="1" style="stop-color:#5CA617"/>
</radialGradient>
<path d="M34.924,18.466l0.929,1.55c0,0,15.101-6.784,14.084-8.038c-0.513-0.631-0.577-0.656-1.237-1.263  c-1.985-1.815-4.172-2.531-4.172-2.531c-0.186-0.063-0.481-0.12-0.845-0.161c-0.596,0.004-1.2,0.068-1.806,0.201  c-4.591,1.009-7.57,5.501-6.963,10.257C34.916,18.477,34.921,18.47,34.924,18.466z" fill="url(#SVGID_2_)"/>
<path d="M17.483,34.105c-0.988-0.139-2.007-0.119-3.027,0.105c-2.418,0.531-4.376,2.066-5.646,4.131  c-0.367,2.35-0.25,4.408-0.05,5.18c0,0,0.34,1.035,1.144,2.377c0.29,0.482,6.54-8.264,8.556-11.107L17.483,34.105z" fill="#020202" fill-opacity="0.1" stroke-opacity="0.1"/>
<path d="M18.366,34.135c-0.989-0.139-2.008-0.117-3.029,0.105c-3.313,0.727-5.775,3.332-6.76,6.623  c-0.026,1.025,0.034,1.873,0.127,2.398c0.003,0.012,0.005,0.033,0.01,0.047c0,0,0.34,1.033,1.144,2.379  c0.3,0.498,6.981-8.887,8.75-11.383L18.366,34.135z" fill="#020202" fill-opacity="0.1" stroke-opacity="0.1"/>
<radialGradient cx="437.4258" cy="-571.231" gradientTransform="matrix(0.2095 0.9787 -0.9682 0.2124 -629.4526 -270.6148)" gradientUnits="userSpaceOnUse" id="SVGID_3_" r="14.6187">
<stop offset="0" style="stop-color:#A7E722"/>
<stop offset="0.6242" style="stop-color:#428C0F"/>
<stop offset="1" style="stop-color:#5CA617"/>
</radialGradient>
<path d="M11.202,47.738c0.616,0.74,0.646,0.953,1.295,1.523c1.194,1.055,9.301-13.611,9.301-13.611  l-2.683-1.719c-0.941-0.111-1.914-0.08-2.89,0.135c-4.777,1.049-7.806,5.869-6.87,10.832C9.749,45.686,10.349,46.709,11.202,47.738z  " fill="url(#SVGID_3_)"/>
<path d="M49.937,11.978c-0.179-0.22-0.381-0.446-0.578-0.67l-13.944,7.959l0.438,0.749  C35.853,20.016,50.953,13.231,49.937,11.978z" fill="#020202" fill-opacity="0.4" stroke-opacity="0.4"/>
<linearGradient gradientTransform="matrix(0.2118 0.9773 -0.9773 0.2118 -634.5599 -270.4865)" gradientUnits="userSpaceOnUse" id="SVGID_4_" x1="422.2881" x2="427.4786" y1="-610.9287" y2="-594.4409">
<stop offset="0" style="stop-color:#C6FF45"/>
<stop offset="0.6788" style="stop-color:#387300"/>
<stop offset="1" style="stop-color:#66A00E"/>
</linearGradient>
<path d="M35.853,20.016l1.178,1.981c0.302,0.515,0.972,0.674,1.569,0.422l4.09-2.334l8.043-4.668  c0.632-0.363,0.878-1.119,0.549-1.686c0,0-0.333-0.501-1.349-1.751L35.853,20.016z" fill="url(#SVGID_4_)"/>
<path d="M21.798,35.65l-0.725-0.473l-9.215,13.486c0.216,0.205,0.43,0.414,0.639,0.598  C13.691,50.316,21.798,35.65,21.798,35.65z" fill="#020202" fill-opacity="0.4" stroke-opacity="0.4"/>
<linearGradient gradientTransform="matrix(0.2118 0.9773 -0.9773 0.2118 -634.5599 -270.4865)" gradientUnits="userSpaceOnUse" id="SVGID_5_" x1="439.6982" x2="451.5232" y1="-577.7549" y2="-564.7323">
<stop offset="0" style="stop-color:#C6FF45"/>
<stop offset="0.6788" style="stop-color:#387300"/>
<stop offset="1" style="stop-color:#66A00E"/>
</linearGradient>
<path d="M12.498,49.262c1.193,1.049,1.686,1.369,1.686,1.369c0.567,0.367,1.363,0.17,1.781-0.441l7.9-11.605  c0.419-0.615,0.307-1.412-0.26-1.777l-1.808-1.156L12.498,49.262z" fill="url(#SVGID_5_)"/>
<rect fill="none" height="60" width="60"/>
</g>
</svg>
