<?xml version="1.0" encoding="UTF-8"?>
<!DOCTYPE svg PUBLIC "-//W3C//DTD SVG 1.1 Tiny//EN" "http://www.w3.org/Graphics/SVG/1.1/DTD/svg11-tiny.dtd">
<svg baseProfile="tiny" height="60" viewBox="0 0 60 60" width="60" xmlns="http://www.w3.org/2000/svg" xmlns:xlink="http://www.w3.org/1999/xlink">
<g>
<rect fill="none" height="60" width="60"/>
<linearGradient gradientUnits="userSpaceOnUse" id="SVGID_1_" x1="31.3823" x2="31.3823" y1="49.3193" y2="6.7675">
<stop offset="0" style="stop-color:#004E8C"/>
<stop offset="1" style="stop-color:#1B66D8"/>
</linearGradient>
<circle cx="31.382" cy="28.137" fill="url(#SVGID_1_)" r="21.429"/>
<radialGradient cx="23.8237" cy="17.7847" gradientTransform="matrix(0.9953 0 0 0.9952 7.3664 3.0238)" gradientUnits="userSpaceOnUse" id="SVGID_2_" r="25.9191">
<stop offset="0" style="stop-color:#94FFFF"/>
<stop offset="0.5" style="stop-color:#36B5FF"/>
<stop offset="1" style="stop-color:#1B66D8"/>
</radialGradient>
<path d="M52.262,28.137c0,11.533-9.346,20.877-20.879,20.877c-11.533,0-20.882-9.344-20.882-20.877  c0-11.53,9.35-20.88,20.882-20.88C42.917,7.257,52.262,16.607,52.262,28.137z" fill="url(#SVGID_2_)"/>
<linearGradient gradientUnits="userSpaceOnUse" id="SVGID_3_" x1="31.3823" x2="31.3823" y1="7.0732" y2="49.1199">
<stop offset="0" style="stop-color:#31A7F8"/>
<stop offset="0.497" style="stop-color:#1E74DC"/>
<stop offset="1" style="stop-color:#88D6EB"/>
</linearGradient>
<path d="M31.383,7.257c-11.533,0-20.882,9.35-20.882,20.88c0,11.533,9.35,20.877,20.882,20.877  c11.533,0,20.879-9.344,20.879-20.877C52.262,16.607,42.917,7.257,31.383,7.257z M31.383,47.188  c-10.843,0-19.664-8.818-19.664-19.659c0-10.843,8.82-19.663,19.664-19.663c10.841,0,19.66,8.82,19.66,19.663  C51.043,38.369,42.224,47.188,31.383,47.188z" fill="url(#SVGID_3_)" fill-opacity="0.3" stroke-opacity="0.3"/>
<linearGradient gradientUnits="userSpaceOnUse" id="SVGID_4_" x1="10.8428" x2="14.1621" y1="30.9775" y2="30.9775">
<stop offset="0" style="stop-color:#58595B"/>
<stop offset="1" style="stop-color:#000000"/>
</linearGradient>
<path d="M12.462,27.796C12.239,27.5,11.737,27.5,11.516,27.5c-0.437,0-0.669,0.312-0.673,0.616  v0.021l0.001,0.031c-0.001,0.537,0.029,1.14,0.094,1.872c0.013,0.138,0.03,0.276,0.047,0.414l0.024,0.201  c0.056,0.434,0.121,0.86,0.195,1.274l0.034,0.182c0.032,0.164,0.063,0.324,0.098,0.484c0.089,0.406,0.198,0.826,0.332,1.291  c0.02,0.066,0.037,0.133,0.055,0.199c0.028,0.109,0.058,0.217,0.091,0.322l0.005,0.014l0.012,0.033  c-0.003-0.01-0.008-0.023-0.01-0.037l1.198-0.08c0.019-0.188,0.024-0.383,0.019-0.576c-0.01-0.303-0.021-0.676-0.107-0.99  l1.112-1.494l0.12-0.162v-0.203v-1.165v-0.252l-0.179-0.178L12.462,27.796z" fill="url(#SVGID_4_)" fill-opacity="0.3" stroke-opacity="0.3"/>
<linearGradient gradientUnits="userSpaceOnUse" id="SVGID_5_" x1="17.2432" x2="51.9731" y1="24.897" y2="24.897">
<stop offset="0" style="stop-color:#58595B"/>
<stop offset="1" style="stop-color:#000000"/>
</linearGradient>
<path d="M51.966,24.045c-0.016-0.079-0.029-0.136-0.043-0.191  c-0.011-0.042-0.021-0.084-0.029-0.125c-0.106-0.495-0.237-1.005-0.392-1.525l-0.017-0.058c-0.033-0.117-0.068-0.234-0.105-0.349  c-0.188-0.588-0.393-1.148-0.608-1.666c-0.027-0.066-0.056-0.125-0.084-0.188l-0.045-0.1c-0.206-0.474-0.436-0.947-0.677-1.403  l-0.03-0.059c-0.047-0.09-0.093-0.181-0.142-0.269c-0.295-0.532-0.604-1.041-0.918-1.512c-0.032-0.049-0.069-0.102-0.106-0.154  c-0.023-0.031-0.045-0.061-0.066-0.092c-0.302-0.437-0.618-0.862-0.946-1.268l-0.064-0.082c-0.044-0.055-0.088-0.111-0.134-0.167  c-0.381-0.456-0.783-0.898-1.199-1.317c-0.056-0.056-0.115-0.115-0.176-0.172l-0.049-0.047c-0.375-0.368-0.774-0.732-1.183-1.074  l-0.081-0.069c-0.041-0.037-0.083-0.073-0.125-0.106c-0.446-0.367-0.931-0.728-1.435-1.075c-0.063-0.042-0.126-0.083-0.19-0.124  l-0.077-0.05c-0.454-0.301-0.928-0.59-1.404-0.853l-0.072-0.042c-0.04-0.023-0.079-0.045-0.119-0.068  c-0.529-0.283-1.081-0.55-1.643-0.792l-0.142-0.057l-0.153-0.063c-0.148-0.061-0.297-0.114-0.443-0.165  c-0.077-0.026-0.152-0.053-0.228-0.08l-0.282-0.105L38.303,8.74c-0.17,0.107-0.84,0.49-1.235,0.715  c-0.438-0.059-1.499-0.192-2.57-0.295c0.33-0.032,0.787-0.069,1.43-0.111l0.09-1.204L35.97,7.832  c-0.039-0.011-0.077-0.021-0.116-0.029l-0.092-0.018l-0.075-0.015c-0.655-0.131-1.271-0.227-1.882-0.291l-0.004-0.001l-0.085-0.009  c-0.698-0.07-1.409-0.106-2.112-0.106c-0.62,0-1.262,0.033-1.964,0.101c-0.109,0.01-0.214,0.021-0.321,0.032  c-0.693,0.078-1.3,0.17-1.873,0.286l-0.02,0.003l-0.015,0.002c-0.604,0.125-1.211,0.281-1.856,0.477  c-0.058,0.018-0.116,0.037-0.173,0.055l-0.131,0.043c-0.547,0.176-1.082,0.371-1.596,0.582c-0.042,0.018-0.071,0.029-0.1,0.04  l-0.078,0.031c-0.564,0.24-1.128,0.512-1.688,0.812c-0.06,0.031-0.118,0.066-0.177,0.099L21.542,9.97  c-0.157,0.087-0.315,0.185-0.473,0.283l-0.203,0.127l-1.118,0.684l1.242,0.415c0.186,0.063,0.385,0.093,0.592,0.093  c0.67,0,1.317-0.329,1.838-0.593c0.209-0.105,0.521-0.264,0.648-0.288c0.152,0.045,0.306,0.068,0.458,0.068  c0.569,0,1.035-0.306,1.446-0.578l0.111-0.072c0.134-0.043,0.362-0.128,0.818-0.299c0.465-0.174,1.314-0.493,1.54-0.546  c0.44-0.005,0.966-0.068,1.339-0.3c0.352,0.058,0.977,0.157,1.619,0.24c-0.047,0.029-0.093,0.059-0.132,0.097  c-0.209,0.192-1.335,0.533-1.68,0.578c-0.647,0.081-0.908,0.408-1.012,0.666c-0.135,0.336-0.054,0.672,0.078,0.946  c-0.245,0.162-0.545,0.342-0.804,0.479c0.001-0.006,0.003-0.012,0.004-0.02c0.093-0.517,0.16-0.89-0.091-1.189  c-0.128-0.153-0.317-0.241-0.519-0.241c-0.295,0-0.525,0.183-0.711,0.362c-0.52,0.502-0.834,1.129-0.952,1.365l-0.022,0.044  l-0.019,0.035c-0.225,0.431-0.317,0.737-0.192,1.688c-0.055,0.04-0.219,0.102-0.445,0.102c-0.03,0-0.058-0.002-0.079-0.003  c-0.146-0.158-0.349-0.248-0.576-0.248l0,0c-0.524,0-1.238,0.589-2.123,1.754l-0.284,0.374l0.289,0.371l0.27,0.343  c-4.216,3.259-4.248,3.444-4.292,3.717c-0.007,0.024-0.044,0.137-0.095,0.293c-0.628,1.952-0.977,3.413-0.637,4.194  c0.784,1.813,1.669,3.505,2.815,3.599c0.101,0.008,0.212,0.012,0.332,0.012c1.051,0,2.753-0.318,3.572-0.485  c0.151,0.283,0.335,0.614,0.438,0.795l0.181,0.323l0.37-0.012c0.004,0,0.199-0.006,0.448-0.006c0.286,0,0.478,0.008,0.602,0.017  c0.446,1.307,1.3,4.317,1.142,4.944L27.272,34.1c-1.441,2.16,0.306,4.975,1.145,6.328c0.066,0.107,0.126,0.203,0.177,0.287  c0.324,0.922,0.716,1.531,1.545,1.531c0.062,0,0.124-0.004,0.188-0.008c0.047-0.002,0.096-0.004,0.146-0.004  c0.092,0,0.157,0.01,0.226,0.035l0.075,0.027l0.08,0.006c0.155,0.014,0.306,0.035,0.453,0.057c0.255,0.035,0.519,0.07,0.788,0.07  c0.721,0,1.293-0.271,1.787-0.855c0.019-0.002,0.036-0.004,0.055-0.006c0.518-0.072,0.712-0.332,0.778-0.564  c0.038-0.039,0.089-0.086,0.131-0.125c0.204-0.188,0.447-0.41,0.615-0.674c0.075-0.045,0.161-0.096,0.258-0.152  c0.167-0.104,0.355-0.217,0.504-0.293c0.131-0.041,0.247-0.117,0.334-0.225c0.209-0.258,0.166-0.549,0.131-0.783  c-0.035-0.242-0.071-0.492,0.06-0.758c0.738-0.355,2.051-1.23,2.263-1.375l-0.001,0.018c-0.014,0.117-0.048,0.43-0.1,0.629  c-0.279,0.279-0.513,0.703-0.586,0.846l-0.049,0.094l-0.015,0.104c-0.019,0.137-0.094,0.85,0.306,1.311  c0.202,0.23,0.49,0.359,0.813,0.359c0.103,0,0.21-0.014,0.319-0.039c1.027-0.232,2.85-2.703,2.998-4.066  c0.072-0.656-0.185-1.172-0.704-1.416l-0.387-0.184l-0.304,0.303l-1.125,1.125c-0.38,0.035-0.678,0.148-0.879,0.326  c0.012-0.48-0.035-0.973-0.086-1.451c-0.155-1.447-0.185-2.369,0.703-2.996l0.045-0.033l0.038-0.039  c0.321-0.326,0.676-0.611,1.052-0.914c0.88-0.707,1.79-1.438,2.332-2.759l0.022-0.056c0.174-0.451,0.437-1.132,0.081-1.651  c-0.089-0.128-0.275-0.327-0.624-0.397c0.462-0.186,0.816-0.332,0.851-0.346l0.107-0.044l0.083-0.08l1.898-1.822l0.278-0.268  l-0.122-0.366c-0.017-0.047-0.12-0.335-0.411-0.747c0.554,0.075,1.029,0.208,1.185,0.326c0.057,0.124,0.171,0.396,0.292,0.683  c2.089,4.924,2.382,5.178,2.926,5.187c0.021,0,0.037,0.002,0.051,0.003c0.044,0.003,0.083,0.005,0.119,0.005  c0.31,0,0.486-0.157,0.564-0.252c0.227-0.274,0.163-0.608,0.14-0.734l-0.009-0.043c-0.025-0.294-0.008-1.618,0.034-2.706  c0.003,0.002,0.004,0.006,0.006,0.01l1.12-0.445L51.966,24.045z M35.508,18.021c-0.087,0.003-0.181,0.008-0.282,0.012  c-0.322,0.015-0.688,0.031-1.053,0.031c-0.955,0-1.174-0.118-1.196-0.131c-0.113-0.082-0.229-0.144-0.35-0.188  c0.216-0.048,0.464-0.214,0.719-0.708c0.251,0.487,0.592,0.917,1.115,0.917c0.142,0,0.277-0.034,0.406-0.101  C35.043,17.856,35.333,17.957,35.508,18.021z M35.133,15.357c-0.072,0-0.131-0.003-0.176-0.007c0.049-0.128,0.107-0.202,0.154-0.244  c0.06,0.093,0.14,0.175,0.232,0.245C35.27,15.355,35.2,15.357,35.133,15.357z M31.331,16.635c0.327,0.641,0.569,0.917,0.762,1.037  c-0.475,0.038-0.833,0.339-1.126,0.625c-0.206-0.068-0.565-0.286-0.672-0.438c-0.063-0.089-0.138-0.166-0.221-0.232  C30.593,17.479,31.049,16.998,31.331,16.635z M29.523,16.163l-0.679-0.033l-2.278-0.111c0.278-0.229,0.541-0.444,0.697-0.57  c0.042-0.015,0.205-0.06,0.605-0.06c0.242,0,0.474,0.017,0.62,0.029L29.523,16.163z" fill="url(#SVGID_5_)" fill-opacity="0.3" stroke-opacity="0.3"/>
<radialGradient cx="24.4912" cy="10.4414" gradientTransform="matrix(0.9953 0 0 0.9952 7.3664 3.0238)" gradientUnits="userSpaceOnUse" id="SVGID_6_" r="23.6744">
<stop offset="0" style="stop-color:#7AF200"/>
<stop offset="0.3152" style="stop-color:#7AF200"/>
<stop offset="0.7273" style="stop-color:#1CAD0F"/>
<stop offset="1" style="stop-color:#007A3A"/>
</radialGradient>
<path d="M11.451,28.125C11.451,28.125,11.451,28.125,11.451,28.125c0,0.008,0.001,0.012,0.001,0.018  c0,0.622,0.039,1.236,0.093,1.844c0.018,0.198,0.047,0.398,0.069,0.598c0.053,0.417,0.116,0.83,0.19,1.238  c0.042,0.215,0.081,0.434,0.127,0.646c0.094,0.422,0.203,0.838,0.321,1.248c0.05,0.17,0.089,0.342,0.141,0.508  c0.007,0.018,0.015,0.033,0.019,0.051c0.017-0.16,0.021-0.326,0.017-0.496c-0.04-1.199-0.232-1.045-0.232-1.045l1.356-1.822v-1.165  l-1.589-1.589C11.964,28.159,11.452,28.079,11.451,28.125z" fill="url(#SVGID_6_)"/>
<radialGradient cx="24.4868" cy="10.4395" gradientTransform="matrix(0.9953 0 0 0.9952 7.3664 3.0238)" gradientUnits="userSpaceOnUse" id="SVGID_7_" r="23.6775">
<stop offset="0" style="stop-color:#7AF200"/>
<stop offset="0.3152" style="stop-color:#7AF200"/>
<stop offset="0.7273" style="stop-color:#1CAD0F"/>
<stop offset="1" style="stop-color:#007A3A"/>
</radialGradient>
<path d="M24.212,10.099c0.587,0.193,1.066-0.2,1.613-0.549c0.193-0.04,2.338-0.896,2.57-0.896  c0.231,0,1.011-0.03,1.204-0.34c0,0,3.357,0.584,3.863,0.389c0.275-0.107,1.433-0.2,2.425-0.264  c-0.056-0.012-0.106-0.029-0.162-0.041c-0.054-0.011-0.105-0.019-0.161-0.03c-0.623-0.126-1.252-0.226-1.894-0.29  c-0.006,0-0.01,0-0.016-0.002c-0.674-0.068-1.358-0.104-2.052-0.104c-0.644,0-1.277,0.038-1.906,0.098  c-0.11,0.011-0.221,0.022-0.331,0.035c-0.608,0.067-1.211,0.155-1.801,0.274c-0.01,0.003-0.021,0.004-0.031,0.006  c-0.612,0.127-1.213,0.283-1.802,0.464c-0.102,0.03-0.199,0.064-0.302,0.096c-0.522,0.168-1.038,0.356-1.544,0.564  c-0.06,0.026-0.12,0.048-0.18,0.072c-0.557,0.238-1.1,0.501-1.63,0.784c-0.08,0.043-0.156,0.089-0.234,0.134  c-0.227,0.125-0.44,0.267-0.66,0.402C22.273,11.265,23.635,9.904,24.212,10.099z" fill="url(#SVGID_7_)"/>
<radialGradient cx="24.4863" cy="10.437" gradientTransform="matrix(0.9953 0 0 0.9952 7.3664 3.0238)" gradientUnits="userSpaceOnUse" id="SVGID_8_" r="23.6745">
<stop offset="0" style="stop-color:#B2F56E"/>
<stop offset="0.3152" style="stop-color:#B2F56E"/>
<stop offset="0.7273" style="stop-color:#5CBF1B"/>
<stop offset="1" style="stop-color:#227A00"/>
</radialGradient>
<path d="M51.366,24.146c-0.021-0.102-0.049-0.197-0.069-0.297c-0.106-0.499-0.233-0.99-0.378-1.474  c-0.038-0.13-0.076-0.264-0.118-0.395c-0.176-0.549-0.371-1.09-0.59-1.616c-0.04-0.093-0.085-0.184-0.125-0.275  c-0.202-0.464-0.421-0.918-0.657-1.363c-0.056-0.106-0.109-0.215-0.166-0.319c-0.279-0.502-0.575-0.993-0.893-1.469  c-0.054-0.083-0.114-0.161-0.17-0.243c-0.291-0.422-0.596-0.831-0.916-1.228c-0.064-0.079-0.127-0.16-0.194-0.24  c-0.368-0.442-0.756-0.868-1.161-1.277c-0.069-0.07-0.143-0.14-0.215-0.208c-0.369-0.363-0.755-0.714-1.153-1.047  c-0.067-0.056-0.131-0.116-0.198-0.171c-0.448-0.366-0.915-0.714-1.395-1.043c-0.084-0.057-0.17-0.112-0.256-0.167  c-0.442-0.294-0.898-0.571-1.366-0.83c-0.063-0.035-0.123-0.073-0.187-0.108c-0.52-0.278-1.05-0.533-1.594-0.768  c-0.097-0.041-0.194-0.079-0.29-0.12c-0.211-0.087-0.432-0.156-0.646-0.235c-0.255,0.163-1.438,0.832-1.438,0.832  s-5.141-0.702-5.491-0.353c-0.352,0.353-1.721,0.71-2.033,0.751c-0.311,0.04-0.956,0.206-0.182,1.161  c-0.116,0.118-2.325,1.657-2.325,0.957s0.494-1.953-0.2-1.282c-0.498,0.482-0.796,1.135-0.86,1.257  c-0.163,0.312-0.263,0.461-0.145,1.357s-1.43,0.891-1.534,0.659c-0.276-0.622-1.809,1.394-1.809,1.394l0.646,0.828  c0,0-4.51,3.474-4.548,3.707c-0.04,0.234-1.164,3.25-0.775,4.147c0.39,0.897,1.376,3.158,2.307,3.233  c1.222,0.101,4.186-0.559,4.186-0.559c0.08,0.196,0.638,1.189,0.638,1.189s1.453-0.048,1.534,0.11  c0.026,0.053,1.75,5.122,1.182,5.794c-1.357,2.033,0.775,5.012,1.369,6.02c0.594,1.73,0.977,0.955,1.758,1.238  c0.962,0.084,1.772,0.439,2.589-0.611c0.237-0.195,0.641-0.041,0.641-0.313c0-0.152,0.698-0.598,0.878-1.018  c0.188-0.088,0.674-0.414,1.003-0.572c0.299-0.02-0.283-0.82,0.309-1.666c0.64-0.252,2.364-1.414,2.364-1.414  c0.078-1.705-0.839-3.811,0.873-5.02c1.104-1.126,2.553-1.767,3.255-3.479c0.194-0.506,0.628-1.542-0.619-1.231  c-1.173,0.295-2.48,0.362-1.861-0.154c-0.071-0.634-0.85-0.932-1.55-1.552c-0.361-0.854-0.93-2.378-0.93-2.378l-1.24-1.885  l0.155-0.389l1.474,2.171l1.474,1.781c0.542,1.783,1.007,1.939,1.007,1.939c0.815-0.288,2.753-1.086,2.753-1.086l1.898-1.822  c0,0-0.195-0.581-0.967-1.316l-0.584-0.349c-0.126,0.357-0.802,0.491-0.802,0.491l-1.641-1.964l0.61-0.123l0.471,0.896l1.128,0.39  c0,0,0.313-0.229,0.893,0.371c0.473-0.039,2.318,0.09,2.749,0.636c0.085,0.109,2.287,5.607,2.721,5.614  c0.19,0.002,0.329,0.077,0.267-0.256c-0.078-0.156,0-3.609,0.116-4.349c0.295-0.628,0.343-0.003,1.04,1.188  C51.374,24.204,51.372,24.175,51.366,24.146z M31.993,10.823c0.154-0.459,1.047-0.615,1.047-0.615s-0.256,0.473-0.197,0.716  c0.06,0.247-0.407,0.402-0.46,0.982c-0.051,0.578-1.117,0.239-1.204,0.036C31.09,11.74,31.835,11.281,31.993,10.823z M35.816,18.624  c-0.661,0-2.645,0.196-3.19-0.194c-0.546-0.389-0.97,0.04-1.362,0.43c-0.258,0.253-1.193-0.26-1.468-0.649  c-0.271-0.39-1.188-0.361-1.188-0.361l0.208-1.111l-2.637-0.128l-1.499,0.439l-1.41,0.041l0.79-0.376l0.983-0.232  c0,0,1.431-1.176,1.859-1.526c0.363-0.297,1.811-0.129,1.811-0.129l1.589,1.146c0,0-0.353,0.898-0.508,1.091  c0.583-0.039,1.269-1.099,1.269-1.099c-1.239-1.138-1.188-1.524-1.188-1.524l1.633,1.146l0.016,0.01c0,0,0.661,1.558,0.937,1.558  c0.271,0,0.619-1.073,0.619-1.073l0.465-0.117c0.207,0.492,0.595,1.603,1.059,1.343c0.269-0.147,0.71-0.013,1.215,0.181  c0.509,0.195,0.854-0.104,1.267,0.258C37.03,19.349,36.089,18.702,35.816,18.624z M36.853,15.943  c-0.681-0.259-2.984,0.586-2.47-0.796c0.275-0.746,0.981-0.901,1.223-0.405c0.063,0.204,0.83,0.519,0.824,0.09  c-0.006-0.431,0.771-0.659,0.883-0.338C36.899,14.791,38.932,16.341,36.853,15.943z M41.192,17.252  c-0.377-0.304,0.169-0.564-0.387-1.041c-0.798-0.684-1.421-0.978-0.334-1.532c1.341-0.168,0.218,0.428,0.44,0.786  c0.119,0.19,0.796,0.828,1.325,1.61C42.676,17.725,41.567,17.555,41.192,17.252z" fill="url(#SVGID_8_)"/>
<radialGradient cx="24.4839" cy="10.4453" gradientTransform="matrix(0.9953 0 0 0.9952 7.3664 3.0238)" gradientUnits="userSpaceOnUse" id="SVGID_9_" r="23.6688">
<stop offset="0" style="stop-color:#7AF200"/>
<stop offset="0.3152" style="stop-color:#7AF200"/>
<stop offset="0.7273" style="stop-color:#1CAD0F"/>
<stop offset="1" style="stop-color:#007A3A"/>
</radialGradient>
<path d="M41.733,35.008l-1.293,1.291c0,0-0.778,0-0.815,0.313c-0.017,0.133-0.063,0.709-0.192,1.006  c-0.258,0.18-0.569,0.775-0.569,0.775s-0.158,1.15,0.699,0.953C40.42,39.152,43.059,35.633,41.733,35.008z" fill="url(#SVGID_9_)"/>
<path d="M31.68,48.668c1.546,0,3.049-0.174,4.499-0.49c-0.039-0.049-0.071-0.1-0.114-0.145  l-7.534-7.756c-0.434-0.447-1.031-0.705-1.638-0.705c-0.57,0-1.102,0.221-1.5,0.625l-1.144,1.18l-0.472,0.477l-0.436,0.447  c-1.654-1.605-3.133-3.443-4.739-5.873c-0.888-1.348-1.653-2.988-2.138-4.123l-0.178-0.424c-0.001,0-0.242-0.598-0.324-0.811  l-0.027-0.068c-0.067-0.176-0.127-0.341-0.184-0.5l-0.025-0.069l1.843-0.641c1.017-0.344,1.593-1.403,1.363-2.555l-0.007-0.036  l-1.154-3.523l-2.274-6.787c-0.162-0.486-0.47-0.886-0.858-1.16c-2.416,3.407-3.841,7.565-3.841,12.059  C10.797,39.322,20.147,48.668,31.68,48.668z" fill="#020202" fill-opacity="0.1" stroke-opacity="0.1"/>
<path d="M31.68,48.668c1.301,0,2.57-0.125,3.806-0.352l-7.394-7.613c-0.32-0.33-0.758-0.52-1.199-0.52  c-0.404,0-0.779,0.156-1.061,0.441l-1.148,1.182l-0.467,0.473l-0.424,0.436l0.003,0.004l-0.435,0.445  c-1.866-1.736-3.509-3.734-5.269-6.4c-0.91-1.381-1.694-3.059-2.192-4.221l-0.158-0.375l-0.024-0.059c0,0-0.243-0.602-0.327-0.816  l-0.029-0.072c-0.068-0.18-0.129-0.347-0.19-0.513c0,0-0.12-0.337-0.145-0.41l0.071-0.295l2.272-0.791  c0.721-0.244,1.127-1.009,0.966-1.819l-0.007-0.036l-1.142-3.485l-2.274-6.789c-0.119-0.357-0.343-0.65-0.626-0.851  c-2.204,3.31-3.492,7.283-3.492,11.557C10.797,39.322,20.147,48.668,31.68,48.668z" fill="#020202" fill-opacity="0.2" stroke-opacity="0.2"/>
<radialGradient cx="-859.7427" cy="-265.1074" gradientTransform="matrix(0.9999 -0.0111 0.0111 0.9999 905.1068 277.0371)" gradientUnits="userSpaceOnUse" id="SVGID_10_" r="34.2211">
<stop offset="0" style="stop-color:#E9F0F2"/>
<stop offset="0.8364" style="stop-color:#E9F0F2"/>
<stop offset="0.8909" style="stop-color:#AAB1B5"/>
<stop offset="0.9515" style="stop-color:#7C878C"/>
<stop offset="1" style="stop-color:#838F94"/>
</radialGradient>
<path d="M23.387,44.016c-2.39-2.133-4.191-4.469-5.806-6.914c-1.552-2.357-2.958-5.889-3.393-7.428  l-6.272-8.836c-0.357,0.592-0.921,2.715-0.661,5.588c0.262,2.872,2.939,9.828,6.083,14.596c3.146,4.766,7.81,9.248,9.374,10.24  c2.462,1.561,5.427,2.074,6.329,2.029c0,0,0.833-0.098,1.97-0.496C31.5,52.625,23.387,44.016,23.387,44.016z" fill="url(#SVGID_10_)"/>
<path d="M15.369,32.857c-0.55-1.283-0.976-2.456-1.18-3.184l-6.104-8.599c-0.064,0.09-0.099,0.144-0.099,0.144  c-0.104,0.172-0.22,0.458-0.338,0.813c-0.118,0.599-0.177,1.219-0.167,1.854C7.541,28.374,10.936,32.078,15.369,32.857z" fill-opacity="0.05" stroke-opacity="0.05"/>
<path d="M15.108,32.234c-0.423-1.033-0.749-1.953-0.919-2.561l-6.125-8.627c-0.069,0.101-0.109,0.161-0.109,0.161  c-0.097,0.162-0.208,0.434-0.318,0.769c-0.111,0.567-0.168,1.151-0.159,1.751C7.536,28.033,10.834,31.572,15.108,32.234z" fill-opacity="0.05" stroke-opacity="0.05"/>
<path d="M7.907,21.188c-0.088,0.148-0.188,0.394-0.289,0.698c-0.102,0.514-0.152,1.046-0.144,1.59  c0.054,4.01,3.21,7.283,7.24,7.757c-0.232-0.618-0.412-1.157-0.526-1.559l-6.154-8.67C7.951,21.121,7.907,21.188,7.907,21.188z" fill-opacity="0.1" stroke-opacity="0.1"/>
<radialGradient cx="-891.105" cy="-262.4795" gradientTransform="matrix(1.0009 -0.0086 0.0135 0.9911 906.6143 271.6763)" gradientUnits="userSpaceOnUse" id="SVGID_11_" r="11.8382">
<stop offset="0" style="stop-color:#D1D8D9"/>
<stop offset="0.0424" style="stop-color:#D1D8D9"/>
<stop offset="0.4" style="stop-color:#BBC0C2"/>
<stop offset="0.7333" style="stop-color:#7C8C91"/>
<stop offset="1" style="stop-color:#A7B3B7"/>
</radialGradient>
<path d="M14.188,29.674l1.312-0.461c0,0-2.781-12.441-3.885-11.868c-0.555,0.29-0.549,0.448-1.11,0.853  c-1.676,1.219-2.589,2.641-2.589,2.641c-0.077,0.13-0.165,0.345-0.252,0.613c-0.088,0.45-0.134,0.916-0.128,1.392  c0.05,3.62,2.979,6.563,6.661,6.841C14.194,29.681,14.189,29.677,14.188,29.674z" fill="url(#SVGID_11_)"/>
<path d="M23.289,45.25c-0.259,0.727-0.4,1.498-0.39,2.303c0.025,1.906,0.882,3.621,2.242,4.898  c1.716,0.641,3.287,0.871,3.9,0.84c0,0,0.833-0.098,1.97-0.496c0.409-0.143-5.222-6.213-7.055-8.172L23.289,45.25z" fill-opacity="0.05" stroke-opacity="0.05"/>
<path d="M23.448,44.59c-0.261,0.725-0.401,1.496-0.391,2.301c0.036,2.613,1.621,4.875,3.95,6.125  c0.771,0.18,1.418,0.264,1.829,0.275c0.011,0,0.026,0.002,0.037,0c0,0,0.832-0.096,1.972-0.494c0.422-0.148-5.624-6.641-7.233-8.363  L23.448,44.59z" fill-opacity="0.1" stroke-opacity="0.1"/>
<radialGradient cx="-877.4263" cy="-238.3691" gradientTransform="matrix(1.0009 -0.0086 0.0135 0.9911 906.6143 271.6763)" gradientUnits="userSpaceOnUse" id="SVGID_12_" r="12.0474">
<stop offset="0" style="stop-color:#D1D8D9"/>
<stop offset="0.0424" style="stop-color:#D1D8D9"/>
<stop offset="0.4" style="stop-color:#BBC0C2"/>
<stop offset="0.7333" style="stop-color:#7C8C91"/>
<stop offset="1" style="stop-color:#A7B3B7"/>
</radialGradient>
<path d="M32.6,52.1c0.653-0.35,0.819-0.34,1.351-0.74c0.98-0.74-8.83-9.123-8.83-9.123l-1.712,1.756  c-0.229,0.695-0.355,1.434-0.345,2.203c0.051,3.766,3.219,6.797,7.107,6.857C30.828,52.877,31.693,52.584,32.6,52.1z" fill="url(#SVGID_12_)"/>
<path d="M14.866,29.428l0.634-0.215c0,0-2.781-12.441-3.885-11.868  c-0.291,0.151-0.427,0.268-0.573,0.401L14.866,29.428z" fill="#020202" fill-opacity="0.1" stroke-opacity="0.1"/>
<linearGradient gradientTransform="matrix(0.9999 -0.0111 0.0111 0.9999 905.1068 277.0361)" gradientUnits="userSpaceOnUse" id="SVGID_13_" x1="-889.625" x2="-885.2537" y1="-270.9771" y2="-257.0911">
<stop offset="0" style="stop-color:#E9F0F2"/>
<stop offset="0.0424" style="stop-color:#E9F0F2"/>
<stop offset="0.4" style="stop-color:#D4D9DB"/>
<stop offset="0.7333" style="stop-color:#98AAAD"/>
<stop offset="1" style="stop-color:#D0DADE"/>
</linearGradient>
<path d="M15.5,29.214l1.677-0.583c0.435-0.147,0.659-0.629,0.562-1.119l-1.129-3.446l-2.275-6.79  c-0.177-0.533-0.71-0.836-1.188-0.676c0,0-0.429,0.175-1.529,0.747L15.5,29.214z" fill="url(#SVGID_13_)"/>
<path d="M25.121,42.236l-0.468,0.473l8.748,9.039c0.188-0.131,0.379-0.26,0.55-0.389  C34.931,50.619,25.121,42.236,25.121,42.236z" fill="#020202" fill-opacity="0.1" stroke-opacity="0.1"/>
<linearGradient gradientTransform="matrix(0.9999 -0.0111 0.0111 0.9999 905.1068 277.0366)" gradientUnits="userSpaceOnUse" id="SVGID_14_" x1="-876.2178" x2="-867.1104" y1="-245.4277" y2="-235.398">
<stop offset="0" style="stop-color:#E9F0F2"/>
<stop offset="0.0424" style="stop-color:#E9F0F2"/>
<stop offset="0.4" style="stop-color:#D4D9DB"/>
<stop offset="0.7333" style="stop-color:#98AAAD"/>
<stop offset="1" style="stop-color:#D0DADE"/>
</linearGradient>
<path d="M33.95,51.357c0.978-0.738,1.295-1.059,1.295-1.059c0.364-0.373,0.338-1.002-0.059-1.412  l-7.534-7.756c-0.397-0.412-1.016-0.451-1.38-0.08l-1.151,1.186L33.95,51.357z" fill="url(#SVGID_14_)"/>
</g>
<g>
<linearGradient gradientTransform="matrix(1 1.000000e-004 -1.000000e-004 1 -2.3655 -29.0779)" gradientUnits="userSpaceOnUse" id="SVGID_1__" x1="17.3477" x2="17.3477" y1="31.0703" y2="55.8327">
<stop offset="0" style="stop-color:#45E8FF"/>
<stop offset="0.1455" style="stop-color:#45E8FF"/>
<stop offset="0.5576" style="stop-color:#30A4D5"/>
<stop offset="1" style="stop-color:#1347BA"/>
</linearGradient>
<polygon fill="url(#SVGID_1__)" points="25.381,14.288 15.027,3.528 4.573,14.288 10.207,14.288 10.21,26.582 19.865,26.584   19.863,14.288 "/>
<linearGradient gradientTransform="matrix(1 1.000000e-004 -1.000000e-004 1 -2.3655 -29.0779)" gradientUnits="userSpaceOnUse" id="SVGID_2__" x1="17.3701" x2="17.3701" y1="32.3115" y2="43.6498">
<stop offset="0" style="stop-color:#B3FCFF"/>
<stop offset="0.4182" style="stop-color:#B3FCFF"/>
<stop offset="1" style="stop-color:#5FBAD8"/>
</linearGradient>
<polygon fill="url(#SVGID_2__)" points="4.897,14.286 15.026,3.888 25.104,14.288 25.801,14.288 15.027,3.17 4.199,14.286 "/>
<line fill="#1D4489" x1="10.21" x2="19.865" y1="26.578" y2="26.58"/>
<polygon fill="#33AEDB" points="19.867,26.83 10.21,26.828 10.21,26.328 19.866,26.33 19.867,26.83 "/>
<rect fill="none" height="30" width="30"/>
</g>
</svg>
