<?xml version="1.0" encoding="UTF-8"?>
<!DOCTYPE svg PUBLIC "-//W3C//DTD SVG 1.1 Tiny//EN" "http://www.w3.org/Graphics/SVG/1.1/DTD/svg11-tiny.dtd">
<svg baseProfile="tiny" height="60" viewBox="0 0 60 60" width="60" xmlns="http://www.w3.org/2000/svg" xmlns:xlink="http://www.w3.org/1999/xlink">
<g>
<linearGradient gradientTransform="matrix(0.2118 0.9773 -0.9773 0.2118 -634.5609 -270.4865)" gradientUnits="userSpaceOnUse" id="SVGID_1_" x1="423.0967" x2="429.6524" y1="-578.646" y2="-582.9078">
<stop offset="0" style="stop-color:#A7E722"/>
<stop offset="0.1333" style="stop-color:#A7E722"/>
<stop offset="0.6303" style="stop-color:#428C0F"/>
<stop offset="1" style="stop-color:#5CA617"/>
</linearGradient>
<path d="M19.081,33.91c2.089-3.595,4.591-6.496,7.281-9.188c2.593-2.591,6.72-5.3,8.562-6.256l9.604-10.282  c-0.845-0.3-3.693-0.464-7.279,0.616c-3.586,1.083-11.736,6.303-16.979,11.547c-5.242,5.246-9.727,12.347-10.581,14.595  c-1.343,3.541-1.221,7.445-0.929,8.58c0,0,0.34,1.035,1.144,2.377C10.248,46.475,19.081,33.91,19.081,33.91z" fill="url(#SVGID_1_)"/>
<path d="M31.184,20.8c1.488-1.036,2.87-1.882,3.74-2.334L44.271,8.46  c-0.132-0.058-0.209-0.088-0.209-0.088c-0.247-0.088-0.642-0.162-1.124-0.219c-0.793,0.006-1.596,0.093-2.401,0.27  C34.843,9.673,31.019,14.958,31.184,20.8z" fill="#020202" fill-opacity="0.05" stroke-opacity="0.05"/>
<path d="M31.906,20.306c1.205-0.809,2.291-1.462,3.018-1.84l9.377-10.04  c-0.146-0.063-0.233-0.098-0.233-0.098c-0.231-0.08-0.604-0.152-1.06-0.203c-0.751,0.006-1.51,0.087-2.27,0.253  C35.275,9.576,31.636,14.695,31.906,20.306z" fill="#020202" fill-opacity="0.1" stroke-opacity="0.1"/>
<path d="M44.079,8.263c-0.21-0.073-0.55-0.137-0.962-0.186c-0.681,0.006-1.369,0.08-2.06,0.231  c-5.087,1.116-8.426,5.984-7.978,11.233c0.725-0.455,1.363-0.826,1.844-1.076l9.424-10.088C44.178,8.302,44.079,8.263,44.079,8.263z  " fill="#020202" fill-opacity="0.1" stroke-opacity="0.1"/>
<radialGradient cx="40.9697" cy="9.21" gradientUnits="userSpaceOnUse" id="SVGID_2_" r="12.2872">
<stop offset="0" style="stop-color:#A7E722"/>
<stop offset="0.6242" style="stop-color:#428C0F"/>
<stop offset="1" style="stop-color:#5CA617"/>
</radialGradient>
<path d="M34.924,18.466l0.929,1.55c0,0,15.101-6.784,14.084-8.038c-0.513-0.631-0.577-0.656-1.237-1.263  c-1.985-1.815-4.172-2.531-4.172-2.531c-0.186-0.063-0.481-0.12-0.845-0.161c-0.596,0.004-1.2,0.068-1.806,0.201  c-4.591,1.009-7.57,5.501-6.963,10.257C34.916,18.477,34.921,18.47,34.924,18.466z" fill="url(#SVGID_2_)"/>
<path d="M17.483,34.105c-0.988-0.139-2.007-0.119-3.027,0.105c-2.418,0.531-4.376,2.066-5.646,4.131  c-0.367,2.35-0.25,4.408-0.05,5.18c0,0,0.34,1.035,1.144,2.377c0.29,0.482,6.54-8.264,8.556-11.107L17.483,34.105z" fill="#020202" fill-opacity="0.1" stroke-opacity="0.1"/>
<path d="M18.366,34.135c-0.989-0.139-2.008-0.117-3.029,0.105c-3.313,0.727-5.775,3.332-6.76,6.623  c-0.026,1.025,0.034,1.873,0.127,2.398c0.003,0.012,0.005,0.033,0.01,0.047c0,0,0.34,1.033,1.144,2.379  c0.3,0.498,6.981-8.887,8.75-11.383L18.366,34.135z" fill="#020202" fill-opacity="0.1" stroke-opacity="0.1"/>
<radialGradient cx="437.4258" cy="-571.231" gradientTransform="matrix(0.2095 0.9787 -0.9682 0.2124 -629.4526 -270.6148)" gradientUnits="userSpaceOnUse" id="SVGID_3_" r="14.6187">
<stop offset="0" style="stop-color:#A7E722"/>
<stop offset="0.6242" style="stop-color:#428C0F"/>
<stop offset="1" style="stop-color:#5CA617"/>
</radialGradient>
<path d="M11.202,47.738c0.616,0.74,0.646,0.953,1.295,1.523c1.194,1.055,9.301-13.611,9.301-13.611  l-2.683-1.719c-0.941-0.111-1.914-0.08-2.89,0.135c-4.777,1.049-7.806,5.869-6.87,10.832C9.749,45.686,10.349,46.709,11.202,47.738z  " fill="url(#SVGID_3_)"/>
<path d="M49.937,11.978c-0.179-0.22-0.381-0.446-0.578-0.67l-13.944,7.959l0.438,0.749  C35.853,20.016,50.953,13.231,49.937,11.978z" fill="#020202" fill-opacity="0.4" stroke-opacity="0.4"/>
<linearGradient gradientTransform="matrix(0.2118 0.9773 -0.9773 0.2118 -634.5599 -270.4865)" gradientUnits="userSpaceOnUse" id="SVGID_4_" x1="422.2881" x2="427.4786" y1="-610.9287" y2="-594.4409">
<stop offset="0" style="stop-color:#C6FF45"/>
<stop offset="0.6788" style="stop-color:#387300"/>
<stop offset="1" style="stop-color:#66A00E"/>
</linearGradient>
<path d="M35.853,20.016l1.178,1.981c0.302,0.515,0.972,0.674,1.569,0.422l4.09-2.334l8.043-4.668  c0.632-0.363,0.878-1.119,0.549-1.686c0,0-0.333-0.501-1.349-1.751L35.853,20.016z" fill="url(#SVGID_4_)"/>
<path d="M21.798,35.65l-0.725-0.473l-9.215,13.486c0.216,0.205,0.43,0.414,0.639,0.598  C13.691,50.316,21.798,35.65,21.798,35.65z" fill="#020202" fill-opacity="0.4" stroke-opacity="0.4"/>
<linearGradient gradientTransform="matrix(0.2118 0.9773 -0.9773 0.2118 -634.5599 -270.4865)" gradientUnits="userSpaceOnUse" id="SVGID_5_" x1="439.6982" x2="451.5232" y1="-577.7549" y2="-564.7323">
<stop offset="0" style="stop-color:#C6FF45"/>
<stop offset="0.6788" style="stop-color:#387300"/>
<stop offset="1" style="stop-color:#66A00E"/>
</linearGradient>
<path d="M12.498,49.262c1.193,1.049,1.686,1.369,1.686,1.369c0.567,0.367,1.363,0.17,1.781-0.441l7.9-11.605  c0.419-0.615,0.307-1.412-0.26-1.777l-1.808-1.156L12.498,49.262z" fill="url(#SVGID_5_)"/>
<rect fill="none" height="60" width="60"/>
</g>
<g transform="matrix(0.5 0 0 0.5 30 30)">
<path d="M30,54.705C16.376,54.705,5.294,43.623,5.294,30  C5.294,16.376,16.376,5.294,30,5.294c13.623,0,24.705,11.083,24.705,24.706C54.705,43.623,43.623,54.705,30,54.705L30,54.705z" style="opacity:0.6;enable-background:new    ;"/>
<radialGradient cx="2.7217" cy="-242.9165" gradientTransform="matrix(0.618 0 0 -0.618 28.3176 -128.0637)" gradientUnits="userSpaceOnUse" id="SVGID_1__" r="48.9069">
<stop offset="0" style="stop-color:#94FFFF"/>
<stop offset="0.5" style="stop-color:#36B5FF"/>
<stop offset="1" style="stop-color:#1B66D8"/>
</radialGradient>
<circle cx="30" cy="30" r="22.941" style="fill:url(#SVGID_1__);"/>
<path d="M52.122,28.744c-0.509-8.961-6.312-16.677-14.788-19.661l-1.032,0.169  l-5.995-1.147l-7.474,4.456l-0.281,1.878h-4.336l1.714,2.914l-4.643,3.787l-1.082,4.675l3.834,6.795l3.914-0.799l1.429,1.229  l1.117,0.111l0.738,2.883l-0.974,2.527l3.552,9.086h3.623l3.592-2.9v-1.185l0.947-1.47l0.783-0.4  c-0.199,0.303-0.512,0.998-0.512,0.998c-0.033,0.236,0.51,4.862,2.104,4.5c1.211-0.273,5.533-8.303,5.615-9.066  c0.164-1.51-0.658-2.134-1.162-2.37l-0.562-0.265l-2.58,2.587c-0.276,0.021-0.526,0.067-0.751,0.134v-2.147l2.802-2.737l1.426-4.595  l2.173-1.769l-0.477-0.866l1.639-1.578l-0.916-1.669l0.697,0.084l4.082,9.138l0.836-0.666c-0.025-0.447-0.074-0.887-0.125-1.329  L52.122,28.744z M30.275,18.466l-0.341-0.911h2.049l0.997,2.243h-1.484v-1.333H30.275z M37.035,22.983l1.637,2.388l0.111,0.286  l-1.677-1.013l-0.401-1.445L37.035,22.983z M39.496,27.155l0.494,0.494l-0.639,0.143l-0.145-0.177L39.496,27.155z M26.695,11.093  l1.041,1.611l-1.183,0.362l-0.462-0.263L26.695,11.093z" style="opacity:0.3;enable-background:new    ;"/>
<path d="M30,7.059C17.331,7.059,7.059,17.331,7.059,30  c0,12.674,10.272,22.941,22.941,22.941c12.674,0,22.941-10.268,22.941-22.941C52.941,17.331,42.674,7.059,30,7.059z M30,51.176  C18.323,51.176,8.823,41.677,8.823,30c0-11.677,9.5-21.177,21.177-21.177c11.677,0,21.176,9.5,21.176,21.177  C51.176,41.677,41.677,51.176,30,51.176z" style="opacity:0.3;fill:url(#SVGID_2__);enable-background:new    ;"/>
<radialGradient cx="182.1514" cy="-162.9028" gradientTransform="matrix(1.7647 0 0 -1.7647 -290.1173 -274.2362)" gradientUnits="userSpaceOnUse" id="SVGID_3__" r="15.4155">
<stop offset="0" style="stop-color:#94FF26"/>
<stop offset="0.3152" style="stop-color:#94FF26"/>
<stop offset="0.7273" style="stop-color:#1FC211"/>
<stop offset="1" style="stop-color:#0BA133"/>
</radialGradient>
<path d="M42.431,36.555l-2.388,2.391c0,0-1.443,0-1.511,0.572c-0.032,0.246-0.111,1.313-0.354,1.863  c-0.48,0.332-1.054,1.434-1.054,1.434s-0.298,2.129,1.296,1.768C40.004,44.224,44.883,37.707,42.431,36.555z" style="fill:url(#SVGID_3__);"/>
<radialGradient cx="182.1514" cy="-162.9023" gradientTransform="matrix(1.7647 0 0 -1.7647 -290.1173 -274.2362)" gradientUnits="userSpaceOnUse" id="SVGID_4__" r="17.8322">
<stop offset="0" style="stop-color:#94FF26"/>
<stop offset="0.3152" style="stop-color:#94FF26"/>
<stop offset="0.7273" style="stop-color:#1FC211"/>
<stop offset="1" style="stop-color:#0BA133"/>
</radialGradient>
<path d="M37.041,9.916c-0.392,0.148-0.66,0.25-0.66,0.25L30.48,9.037l-2.894,1.811l1.523,2.356  l-2.663,0.819l-1.435-0.819l0.504-1.431l-1.871,1.295l-0.333,2.255h-3.554l1.314,2.238l-4.996,4.073l-0.94,4.066l1.855,3.591  L18.104,30l3.914-0.799l1.43,1.228l1.299,0.127l1.414,5.53l-0.941,2.446l2.079,4.595l0.585,1.908h3.623l2.048-1.108l1.543-1.793  v-2.169l2.936-1.498v-3.213l1.16-2.208l2.59-2.329l0.619-2.7l-3.387,0.755l-0.891-1.085l0.633-1.013l-2.404-1.454l-1.025-3.687  l1.776-1.158l1.636,2.388l0.613,1.572l1.228,1.229l1.435,0.75l1.594-0.258l1.77-1.703l-1.246-2.273l-1.568,0.409L41.146,20.8  l1.349-0.94l4.23,0.512v1.505l3.681,7.585l0.837-0.669C50.746,20.045,44.965,12.704,37.041,9.916z M35.119,20.169l-1.932,0.512  h-2.573v-1.333h-2.46l-1.946,0.514l-2.966-0.821l-0.821-1.535l4.096-0.921h4.098L30,14.945h2.049l1.14,2.561l1.933,0.678v1.985  H35.119z M39.523,16.79l-3.482-0.616v-1.228l1.741-0.41l0.512-0.614l1.229,1.023L39.523,16.79L39.523,16.79z" style="fill:url(#SVGID_4__);"/>
<rect height="60" style="fill:none;" width="60"/>
<defs>
<linearGradient gradientTransform="matrix(1.7647 0 0 -1.7647 -290.1173 -274.2362)" gradientUnits="userSpaceOnUse" id="SVGID_2__" x1="181.4004" x2="181.4004" y1="-159.4634" y2="-185.5335">
<stop offset="0" style="stop-color:#31A7F8"/>
<stop offset="0.497" style="stop-color:#1E74DC"/>
<stop offset="1" style="stop-color:#C8E4EB"/>
</linearGradient>
</defs>
</g>
</svg>
