<?xml version="1.0" encoding="utf-8"?>
<!-- Generator: Adobe Illustrator 14.0.0, SVG Export Plug-In  -->
<!DOCTYPE svg PUBLIC "-//W3C//DTD SVG 1.1//EN" "http://www.w3.org/Graphics/SVG/1.1/DTD/svg11.dtd" [
	<!ENTITY ns_flows "http://ns.adobe.com/Flows/1.0/">
]>
<svg version="1.1"
	 xmlns="http://www.w3.org/2000/svg" xmlns:xlink="http://www.w3.org/1999/xlink" xmlns:a="http://ns.adobe.com/AdobeSVGViewerExtensions/3.0/"
	 x="0px" y="0px" width="10px" height="10px" viewBox="0 0 10 10" enable-background="new 0 0 10 10" xml:space="preserve">
<defs>
</defs>
<rect fill="none" width="10" height="10"/>
<linearGradient id="SVGID_1_" gradientUnits="userSpaceOnUse" x1="5" y1="49.8145" x2="5" y2="0.1684">
	<stop  offset="0" style="stop-color:#700000"/>
	<stop  offset="1" style="stop-color:#CF1708"/>
</linearGradient>
<path fill="url(#SVGID_1_)" d="M10,0H5C2.238,0,0,2.238,0,5v5h10V0z"/>
<linearGradient id="SVGID_2_" gradientUnits="userSpaceOnUse" x1="5" y1="0.1157" x2="5" y2="49.8868">
	<stop  offset="0" style="stop-color:#FFFFFF"/>
	<stop  offset="1" style="stop-color:#999999"/>
</linearGradient>
<path opacity="0.35" fill="url(#SVGID_2_)" d="M1,5c0-2.206,1.794-4,4-4h5V0H5C2.238,0,0,2.238,0,5v5h1V5z"/>
<rect fill="none" width="10" height="10"/>
<path opacity="0.1" fill="#FFFFFF" d="M10,3H5C3.897,3,3,3.897,3,5v5h7V3z"/>
</svg>
