<?xml version="1.0" encoding="UTF-8"?>
<!DOCTYPE svg PUBLIC "-//W3C//DTD SVG 1.1 Tiny//EN" "http://www.w3.org/Graphics/SVG/1.1/DTD/svg11-tiny.dtd">
<svg baseProfile="tiny" height="60" viewBox="0 0 60 60" width="60" xmlns="http://www.w3.org/2000/svg" xmlns:xlink="http://www.w3.org/1999/xlink">
<g>
<linearGradient gradientTransform="matrix(-0.5413 0.8408 -0.8408 -0.5413 1896.0922 -2198.2874)" gradientUnits="userSpaceOnUse" id="SVGID_1_" x1="2876.6201" x2="2883.1765" y1="367.9102" y2="363.6479">
<stop offset="0" style="stop-color:#FF7236"/>
<stop offset="0.6242" style="stop-color:#BA1212"/>
<stop offset="1" style="stop-color:#E8522A"/>
</linearGradient>
<path d="M19.072,29.698c4.021-1.066,7.842-1.348,11.646-1.35c3.666,0.002,8.5,1.004,10.479,1.631l14.061-0.48  c-0.385-0.81-2.283-2.939-5.582-4.711c-3.303-1.771-11.847-3.841-20.172-3.841S13.896,22.8,11.703,23.785  c-3.453,1.555-6.129,4.401-6.725,5.411c0,0-0.49,0.972-0.873,2.489C3.943,32.337,19.072,29.698,19.072,29.698z" fill="url(#SVGID_1_)"/>
<path d="M36.902,28.984c1.785,0.32,3.359,0.699,4.295,0.995l13.684-0.467  c-0.053-0.134-0.086-0.21-0.086-0.21c-0.111-0.236-0.338-0.568-0.639-0.949c-0.566-0.557-1.195-1.063-1.889-1.508  C47.357,23.704,40.916,24.737,36.902,28.984z" fill="#020202" fill-opacity="0.05" stroke-opacity="0.05"/>
<path d="M37.762,29.146c1.424,0.28,2.654,0.586,3.436,0.833l13.729-0.47  c-0.059-0.148-0.096-0.233-0.096-0.233c-0.105-0.221-0.318-0.535-0.605-0.894c-0.535-0.526-1.129-1.006-1.783-1.426  C47.73,23.941,41.537,24.988,37.762,29.146z" fill="#020202" fill-opacity="0.1" stroke-opacity="0.1"/>
<path d="M54.885,29.238c-0.096-0.2-0.291-0.485-0.549-0.812c-0.484-0.478-1.023-0.911-1.619-1.293  c-4.387-2.808-10.189-1.726-13.584,2.303c0.834,0.19,1.547,0.38,2.064,0.543l13.797-0.47C54.928,29.336,54.885,29.238,54.885,29.238  z" fill="#020202" fill-opacity="0.1" stroke-opacity="0.1"/>
<radialGradient cx="-362.4932" cy="2606.3809" gradientTransform="matrix(0.7071 0.7071 -0.7071 0.7071 2153.4434 -1558.1849)" gradientUnits="userSpaceOnUse" id="SVGID_2_" r="14.0807">
<stop offset="0" style="stop-color:#FF7236"/>
<stop offset="0.6242" style="stop-color:#BA1212"/>
<stop offset="1" style="stop-color:#E8522A"/>
</radialGradient>
<path d="M41.197,29.979l-0.439,1.752c0,0,15.475,5.881,15.643,4.275c0.084-0.809,0.057-0.872,0.018-1.768  c-0.119-2.688-1.16-4.74-1.16-4.74c-0.086-0.176-0.256-0.425-0.482-0.711c-0.424-0.419-0.898-0.801-1.42-1.135  c-3.959-2.533-9.242-1.463-12.176,2.329C41.184,29.981,41.191,29.979,41.197,29.979z" fill="url(#SVGID_2_)"/>
<path d="M17.805,28.706c-0.6-0.797-1.334-1.503-2.215-2.065c-2.084-1.335-4.555-1.633-6.914-1.072  c-1.92,1.402-3.293,2.939-3.697,3.628c0,0-0.49,0.972-0.873,2.489c-0.135,0.546,10.469-1.219,13.904-1.805L17.805,28.706z" fill="#020202" fill-opacity="0.1" stroke-opacity="0.1"/>
<path d="M18.408,29.352c-0.6-0.799-1.336-1.504-2.217-2.067c-2.855-1.829-6.439-1.728-9.463-0.097  c-0.744,0.706-1.299,1.348-1.605,1.785c-0.006,0.011-0.02,0.027-0.027,0.04c0,0-0.49,0.972-0.873,2.491  c-0.141,0.564,11.221-1.348,14.236-1.862L18.408,29.352z" fill="#020202" fill-opacity="0.1" stroke-opacity="0.1"/>
<radialGradient cx="2885.8242" cy="377.8994" gradientTransform="matrix(-0.5439 0.8402 -0.8348 -0.5344 1899.8433 -2194.1335)" gradientUnits="userSpaceOnUse" id="SVGID_3_" r="14.6192">
<stop offset="0" style="stop-color:#FF7236"/>
<stop offset="0.6242" style="stop-color:#BA1212"/>
<stop offset="1" style="stop-color:#E8522A"/>
</radialGradient>
<path d="M3.725,33.904c-0.088,0.959-0.219,1.131-0.162,1.993c0.098,1.591,16.201-3.049,16.201-3.049  l-0.682-3.112c-0.586-0.744-1.297-1.409-2.139-1.947c-4.119-2.637-9.67-1.369-12.518,2.802C4.148,31.425,3.848,32.573,3.725,33.904z  " fill="url(#SVGID_3_)"/>
<path d="M56.4,36.007c0.029-0.282,0.047-0.585,0.064-0.883l-15.488-4.232l-0.219,0.84  C40.758,31.731,56.232,37.612,56.4,36.007z" fill="#020202" fill-opacity="0.4" stroke-opacity="0.4"/>
<linearGradient gradientTransform="matrix(-0.5413 0.8408 -0.8408 -0.5413 1896.0941 -2198.2864)" gradientUnits="userSpaceOnUse" id="SVGID_4_" x1="2875.8125" x2="2881.0032" y1="335.625" y2="352.1139">
<stop offset="0" style="stop-color:#FF7236"/>
<stop offset="0.6242" style="stop-color:#BA1212"/>
<stop offset="1" style="stop-color:#E8522A"/>
</linearGradient>
<path d="M40.758,31.731l-0.568,2.234c-0.15,0.577,0.211,1.163,0.811,1.408l4.543,1.241l8.988,2.387  c0.703,0.189,1.412-0.171,1.58-0.804c0,0,0.119-0.59,0.283-2.192L40.758,31.731z" fill="url(#SVGID_4_)"/>
<path d="M19.764,32.849l-0.178-0.846L3.533,35.023c0.008,0.297,0.012,0.597,0.029,0.874  C3.66,37.488,19.764,32.849,19.764,32.849z" fill="#020202" fill-opacity="0.4" stroke-opacity="0.4"/>
<linearGradient gradientTransform="matrix(-0.5413 0.8408 -0.8408 -0.5413 1896.0941 -2198.2869)" gradientUnits="userSpaceOnUse" id="SVGID_5_" x1="2893.2236" x2="2905.0479" y1="368.8027" y2="381.8245">
<stop offset="0" style="stop-color:#FF7236"/>
<stop offset="0.6242" style="stop-color:#BA1212"/>
<stop offset="1" style="stop-color:#E8522A"/>
</linearGradient>
<path d="M3.563,35.897c0.102,1.587,0.225,2.161,0.225,2.161c0.141,0.66,0.844,1.083,1.572,0.946l13.793-2.62  c0.73-0.138,1.213-0.78,1.072-1.44l-0.461-2.096L3.563,35.897z" fill="url(#SVGID_5_)"/>
<rect fill="none" height="60" width="60"/>
</g>
</svg>
