<?xml version="1.0" encoding="UTF-8"?>
<!DOCTYPE svg PUBLIC "-//W3C//DTD SVG 1.1 Tiny//EN" "http://www.w3.org/Graphics/SVG/1.1/DTD/svg11-tiny.dtd">
<svg baseProfile="tiny" height="60" viewBox="0 0 60 60" width="60" xmlns="http://www.w3.org/2000/svg" xmlns:xlink="http://www.w3.org/1999/xlink">
<g>
<linearGradient gradientTransform="matrix(0.2118 0.9773 -0.9773 0.2118 -634.5609 -270.4865)" gradientUnits="userSpaceOnUse" id="SVGID_1_" x1="422.2207" x2="428.7761" y1="-578.2104" y2="-582.472">
<stop offset="0" style="stop-color:#A7E722"/>
<stop offset="0.1333" style="stop-color:#A7E722"/>
<stop offset="0.6303" style="stop-color:#428C0F"/>
<stop offset="1" style="stop-color:#5CA617"/>
</linearGradient>
<path d="M18.469,33.146c2.09-3.596,4.591-6.497,7.281-9.19c2.594-2.589,6.72-5.299,8.562-6.254L43.916,7.42  c-0.846-0.3-3.693-0.465-7.279,0.616c-3.588,1.083-11.736,6.302-16.979,11.547C14.416,24.83,9.932,31.93,9.077,34.178  c-1.343,3.541-1.222,7.445-0.929,8.58c0,0,0.34,1.035,1.145,2.377C9.636,45.711,18.469,33.146,18.469,33.146z" fill="url(#SVGID_1_)"/>
<path d="M30.573,20.037c1.488-1.037,2.869-1.883,3.74-2.335l9.346-10.006  c-0.131-0.057-0.209-0.088-0.209-0.088c-0.246-0.088-0.641-0.162-1.123-0.218c-0.793,0.005-1.596,0.093-2.402,0.27  C34.23,8.909,30.409,14.194,30.573,20.037z" fill="#020202" fill-opacity="0.05" stroke-opacity="0.05"/>
<path d="M31.295,19.542c1.205-0.809,2.291-1.462,3.018-1.84l9.377-10.04  c-0.146-0.063-0.234-0.098-0.234-0.098c-0.232-0.08-0.604-0.152-1.061-0.203c-0.75,0.006-1.508,0.087-2.27,0.253  C34.664,8.813,31.023,13.932,31.295,19.542z" fill="#020202" fill-opacity="0.1" stroke-opacity="0.1"/>
<path d="M43.467,7.499c-0.209-0.073-0.549-0.137-0.963-0.186c-0.68,0.006-1.369,0.08-2.059,0.231  c-5.088,1.116-8.426,5.984-7.977,11.233c0.725-0.455,1.363-0.826,1.844-1.076l9.422-10.088C43.566,7.538,43.467,7.499,43.467,7.499z  " fill="#020202" fill-opacity="0.1" stroke-opacity="0.1"/>
<radialGradient cx="46.6523" cy="-5.2056" gradientTransform="matrix(0.6122 0 0 0.6122 11.7943 11.6322)" gradientUnits="userSpaceOnUse" id="SVGID_2_" r="20.0698">
<stop offset="0" style="stop-color:#A7E722"/>
<stop offset="0.6242" style="stop-color:#428C0F"/>
<stop offset="1" style="stop-color:#5CA617"/>
</radialGradient>
<path d="M34.313,17.702l0.928,1.55c0,0,15.102-6.784,14.084-8.039c-0.514-0.631-0.576-0.656-1.238-1.262  c-1.984-1.815-4.17-2.531-4.17-2.531C43.73,7.357,43.434,7.3,43.07,7.258c-0.596,0.005-1.199,0.069-1.805,0.202  c-4.592,1.008-7.572,5.5-6.965,10.256C34.305,17.713,34.309,17.706,34.313,17.702z" fill="url(#SVGID_2_)"/>
<path d="M16.873,33.344c-0.989-0.141-2.008-0.121-3.028,0.104c-2.417,0.531-4.375,2.066-5.646,4.131  c-0.367,2.35-0.25,4.408-0.05,5.18c0,0,0.34,1.035,1.145,2.377c0.289,0.484,6.539-8.264,8.555-11.107L16.873,33.344z" fill="#020202" fill-opacity="0.1" stroke-opacity="0.1"/>
<path d="M17.755,33.373c-0.989-0.141-2.008-0.119-3.029,0.104c-3.313,0.727-5.776,3.332-6.76,6.623  C7.94,41.125,8,41.973,8.093,42.498c0.002,0.012,0.005,0.033,0.01,0.047c0,0,0.339,1.033,1.143,2.379  c0.3,0.498,6.981-8.887,8.75-11.383L17.755,33.373z" fill="#020202" fill-opacity="0.1" stroke-opacity="0.1"/>
<radialGradient cx="437.749" cy="-560.2109" gradientTransform="matrix(0.1283 0.5992 -0.5928 0.13 -373.5847 -154.0506)" gradientUnits="userSpaceOnUse" id="SVGID_3_" r="23.8799">
<stop offset="0" style="stop-color:#A7E722"/>
<stop offset="0.6242" style="stop-color:#428C0F"/>
<stop offset="1" style="stop-color:#5CA617"/>
</radialGradient>
<path d="M10.591,46.975c0.616,0.74,0.646,0.955,1.294,1.525c1.195,1.055,9.301-13.613,9.301-13.613  l-2.683-1.719c-0.941-0.111-1.913-0.08-2.889,0.135c-4.777,1.049-7.806,5.869-6.87,10.832C9.138,44.922,9.736,45.947,10.591,46.975z  " fill="url(#SVGID_3_)"/>
<path d="M49.324,11.213c-0.178-0.219-0.381-0.445-0.578-0.669l-13.943,7.958l0.438,0.749  C35.24,19.252,50.342,12.468,49.324,11.213z" fill="#020202" fill-opacity="0.4" stroke-opacity="0.4"/>
<linearGradient gradientTransform="matrix(0.2118 0.9773 -0.9773 0.2118 -634.5599 -270.4865)" gradientUnits="userSpaceOnUse" id="SVGID_4_" x1="421.4131" x2="426.6039" y1="-610.4937" y2="-594.0048">
<stop offset="0" style="stop-color:#C6FF45"/>
<stop offset="0.6788" style="stop-color:#387300"/>
<stop offset="1" style="stop-color:#66A00E"/>
</linearGradient>
<path d="M35.24,19.252l1.178,1.98c0.301,0.515,0.973,0.673,1.57,0.423l4.09-2.335l8.043-4.667  c0.631-0.363,0.877-1.12,0.549-1.685c0,0-0.334-0.501-1.35-1.752L35.24,19.252z" fill="url(#SVGID_4_)"/>
<path d="M21.186,34.887l-0.725-0.473l-9.214,13.488c0.215,0.203,0.429,0.412,0.638,0.598  C13.081,49.555,21.186,34.887,21.186,34.887z" fill="#020202" fill-opacity="0.4" stroke-opacity="0.4"/>
<linearGradient gradientTransform="matrix(0.2118 0.9773 -0.9773 0.2118 -634.5599 -270.4865)" gradientUnits="userSpaceOnUse" id="SVGID_5_" x1="438.8232" x2="450.6482" y1="-577.3184" y2="-564.2958">
<stop offset="0" style="stop-color:#C6FF45"/>
<stop offset="0.6788" style="stop-color:#387300"/>
<stop offset="1" style="stop-color:#66A00E"/>
</linearGradient>
<path d="M11.887,48.498c1.193,1.051,1.685,1.371,1.685,1.371c0.568,0.367,1.363,0.168,1.781-0.443  l7.901-11.605c0.418-0.615,0.307-1.412-0.261-1.777l-1.808-1.156L11.887,48.498z" fill="url(#SVGID_5_)"/>
<linearGradient gradientUnits="userSpaceOnUse" id="SVGID_6_" x1="39.1182" x2="44.145" y1="48.6309" y2="48.6309">
<stop offset="0" style="stop-color:#878A8C"/>
<stop offset="0.2606" style="stop-color:#BDC2C4"/>
<stop offset="0.6606" style="stop-color:#5B6163"/>
<stop offset="1" style="stop-color:#959A9C"/>
</linearGradient>
<rect fill="url(#SVGID_6_)" height="7.535" width="4.896" x="39.184" y="44.863"/>
<path d="M39.184,49.596c0.787,0.189,1.604,0.303,2.449,0.303c0.844,0,1.662-0.113,2.447-0.303v-4.121  h-4.896V49.596z" fill="#020202" fill-opacity="0.2" stroke-opacity="0.2"/>
<path d="M39.184,48.982c0.787,0.191,1.604,0.303,2.449,0.303c0.844,0,1.662-0.111,2.447-0.303v-4.119  h-4.896V48.982z" fill="#020202" fill-opacity="0.2" stroke-opacity="0.2"/>
<linearGradient gradientUnits="userSpaceOnUse" id="SVGID_7_" x1="41.6328" x2="41.6328" y1="27.8325" y2="48.6499">
<stop offset="0" style="stop-color:#F2F2F2"/>
<stop offset="0.3212" style="stop-color:#E6E6E6"/>
<stop offset="1" style="stop-color:#666666"/>
</linearGradient>
<path d="M41.633,48.674c-5.74,0-10.408-4.67-10.408-10.408c0-5.74,4.668-10.409,10.408-10.409  c5.738,0,10.408,4.668,10.408,10.409C52.041,44.004,47.371,48.674,41.633,48.674L41.633,48.674z" fill="url(#SVGID_7_)"/>
<linearGradient gradientUnits="userSpaceOnUse" id="SVGID_8_" x1="41.6318" x2="41.6318" y1="28.4473" y2="48.0381">
<stop offset="0" style="stop-color:#D1D7D9"/>
<stop offset="0.0667" style="stop-color:#D1D7D9"/>
<stop offset="0.2606" style="stop-color:#BDC2C4"/>
<stop offset="0.6606" style="stop-color:#7C8487"/>
<stop offset="1" style="stop-color:#ADB3B5"/>
</linearGradient>
<circle cx="41.632" cy="38.266" fill="url(#SVGID_8_)" r="9.796"/>
<path d="M41.633,47.037c-5.102,0-9.268-4.059-9.445-9.115c-0.004,0.111-0.008,0.223-0.008,0.334  c0,5.211,4.24,9.451,9.453,9.451c5.211,0,9.451-4.24,9.451-9.451c0-0.111-0.004-0.223-0.008-0.334  C50.898,42.979,46.732,47.037,41.633,47.037z" fill="#FFFFFF" fill-opacity="0.1" stroke-opacity="0.1"/>
<path d="M49.592,37.848c0,4.516-3.564,8.969-7.963,8.967c-4.395-0.002-7.957-4.457-7.957-8.971  c0.004-4.516,3.568-8.172,7.963-8.172C46.029,29.675,49.594,33.334,49.592,37.848z" fill="#231F20" fill-opacity="0.3" stroke-opacity="0.3"/>
<path d="M41.629,46.15c-2.291,0-4.443-0.893-6.061-2.512c-1.619-1.619-2.51-3.773-2.508-6.063  c0-4.725,3.846-8.567,8.572-8.567c2.291,0,4.443,0.893,6.063,2.512c1.619,1.619,2.51,3.771,2.508,6.063  c0,4.725-3.846,8.566-8.57,8.566H41.629z" fill="#231F20" fill-opacity="0.2" stroke-opacity="0.2"/>
<linearGradient gradientUnits="userSpaceOnUse" id="SVGID_9_" x1="41.6318" x2="41.6318" y1="29.5093" y2="45.4663">
<stop offset="0" style="stop-color:#CFCFCF"/>
<stop offset="0.1091" style="stop-color:#CFCFCF"/>
<stop offset="0.6848" style="stop-color:#121212"/>
<stop offset="1" style="stop-color:#A6A6A6"/>
</linearGradient>
<path d="M41.629,45.539c-2.127-0.002-4.125-0.83-5.629-2.334c-1.502-1.502-2.328-3.502-2.328-5.629  c0-4.387,3.572-7.956,7.961-7.956c2.127,0,4.125,0.83,5.629,2.333c1.504,1.504,2.33,3.504,2.33,5.631  c-0.002,4.387-3.572,7.955-7.959,7.955H41.629z" fill="url(#SVGID_9_)"/>
<linearGradient gradientUnits="userSpaceOnUse" id="SVGID_10_" x1="41.6318" x2="41.6318" y1="30.1289" y2="44.8584">
<stop offset="0" style="stop-color:#F2F2F2"/>
<stop offset="1" style="stop-color:#606769"/>
</linearGradient>
<circle cx="41.632" cy="37.58" fill="url(#SVGID_10_)" r="7.347"/>
<linearGradient gradientUnits="userSpaceOnUse" id="SVGID_11_" x1="41.6318" x2="41.6318" y1="31.4756" y2="43.6433">
<stop offset="0" style="stop-color:#1A1A1A"/>
<stop offset="0.503" style="stop-color:#343434"/>
<stop offset="0.7515" style="stop-color:#9E9E9E"/>
<stop offset="1" style="stop-color:#CFCFCF"/>
</linearGradient>
<path d="M41.633,43.701c-1.639,0-3.176-0.639-4.332-1.795c-1.154-1.156-1.791-2.693-1.791-4.33  c0-3.373,2.746-6.119,6.123-6.119c1.637,0,3.174,0.637,4.33,1.795c1.156,1.156,1.793,2.693,1.791,4.33  C47.754,40.957,45.008,43.701,41.633,43.701L41.633,43.701z" fill="url(#SVGID_11_)"/>
<radialGradient cx="59.5957" cy="40.5771" gradientTransform="matrix(0.621 1.836735e-004 -1.836735e-004 0.6209 5.2261 12.8455)" gradientUnits="userSpaceOnUse" id="SVGID_12_" r="10.1859">
<stop offset="0" style="stop-color:#000000"/>
<stop offset="0.5917" style="stop-color:#000000"/>
<stop offset="0.627" style="stop-color:#050505"/>
<stop offset="0.7652" style="stop-color:#121212"/>
<stop offset="0.8876" style="stop-color:#171717"/>
<stop offset="1" style="stop-color:#171717"/>
</radialGradient>
<circle cx="41.632" cy="37.579" fill="url(#SVGID_12_)" r="5.511"/>
<radialGradient cx="53.6738" cy="32.9404" gradientTransform="matrix(0.621 0 0 0.6209 5.811 13.4188)" gradientUnits="userSpaceOnUse" id="SVGID_13_" r="16.2221">
<stop offset="0" style="stop-color:#242424"/>
<stop offset="0.4303" style="stop-color:#242424"/>
<stop offset="0.7818" style="stop-color:#000000"/>
<stop offset="1" style="stop-color:#000000"/>
</radialGradient>
<circle cx="41.633" cy="37.58" fill="url(#SVGID_13_)" r="4.521"/>
<radialGradient cx="56.7607" cy="30.0415" gradientTransform="matrix(0.621 1.836735e-004 -1.836735e-004 0.6209 5.2261 12.8455)" gradientUnits="userSpaceOnUse" id="SVGID_14_" r="17.797">
<stop offset="0" style="stop-color:#A700F5"/>
<stop offset="0.3091" style="stop-color:#A700F5"/>
<stop offset="0.4364" style="stop-color:#5E008A"/>
<stop offset="0.8061" style="stop-color:#0E1402"/>
<stop offset="1" style="stop-color:#0E1402"/>
</radialGradient>
<path d="M45.672,37.58c0,2.232-1.809,4.041-4.041,4.039c-2.232,0-4.041-1.811-4.041-4.041  c0.002-2.232,1.813-4.039,4.041-4.039C43.865,33.541,45.676,35.35,45.672,37.58z" fill="url(#SVGID_14_)"/>
<radialGradient cx="58.6514" cy="45.2432" gradientTransform="matrix(0.621 1.836735e-004 -1.836735e-004 0.6209 5.2261 12.8455)" gradientUnits="userSpaceOnUse" id="SVGID_15_" r="7.2256">
<stop offset="0" style="stop-color:#48630C"/>
<stop offset="0.7879" style="stop-color:#000000"/>
<stop offset="1" style="stop-color:#000000"/>
</radialGradient>
<path d="M45.672,37.58c0,2.232-1.809,4.041-4.041,4.039c-2.232,0-4.041-1.811-4.041-4.041  c0,0,1.385,2.465,4.041,2.465S45.672,37.58,45.672,37.58z" fill="url(#SVGID_15_)"/>
<linearGradient gradientUnits="userSpaceOnUse" id="SVGID_16_" x1="41.6123" x2="41.6123" y1="32.7168" y2="37.5411">
<stop offset="0" style="stop-color:#F8FBFF"/>
<stop offset="1" style="stop-color:#808080"/>
</linearGradient>
<path d="M41.611,37.518c1.754,0,3.404-0.264,4.863-0.732  c-0.414-2.313-2.432-4.068-4.863-4.068c-2.43,0-4.445,1.756-4.861,4.068C38.207,37.254,39.859,37.518,41.611,37.518z" fill="url(#SVGID_16_)" fill-opacity="0.35" stroke-opacity="0.35"/>
<linearGradient gradientUnits="userSpaceOnUse" id="SVGID_17_" x1="32.7676" x2="50.541" y1="51.5801" y2="51.5801">
<stop offset="0" style="stop-color:#878A8C"/>
<stop offset="0.2606" style="stop-color:#BDC2C4"/>
<stop offset="0.6606" style="stop-color:#5B6163"/>
<stop offset="1" style="stop-color:#959A9C"/>
</linearGradient>
<path d="M50.502,52.805c0.025-0.609,0.039-0.486,0.039-0.613v-0.033c0-0.996-0.816-1.803-1.824-1.803H34.592  c-1.008,0-1.824,0.807-1.824,1.803v0.033c0,0.127,0.014,0.004,0.039,0.613H50.502z" fill="url(#SVGID_17_)"/>
<path d="M32.881,51.557H50.43c-0.08-0.225-0.203-0.426-0.361-0.6H33.242  C33.084,51.131,32.961,51.332,32.881,51.557z" fill="#FFFFFF" fill-opacity="0.2" stroke-opacity="0.2"/>
<path d="M32.777,52.191c0.008,0.125,0.016,0.309,0.029,0.613h17.695  c0.012-0.305,0.021-0.488,0.027-0.613H32.777z" fill="#020202" fill-opacity="0.2" stroke-opacity="0.2"/>
<path d="M33.24,50.957h16.826c-0.332-0.367-0.811-0.602-1.35-0.602H34.592  C34.053,50.355,33.574,50.59,33.24,50.957z" fill="#FFFFFF" fill-opacity="0.4" stroke-opacity="0.4"/>
<rect fill="none" height="60" width="60"/>
</g>
<g>
<linearGradient gradientTransform="matrix(1 1.000000e-004 -1.000000e-004 1 -2.3655 -29.0779)" gradientUnits="userSpaceOnUse" id="SVGID_1__" x1="17.3926" x2="17.3926" y1="32.2334" y2="55.3194">
<stop offset="0" style="stop-color:#C6FF45"/>
<stop offset="0.7273" style="stop-color:#66A00E"/>
<stop offset="1" style="stop-color:#387300"/>
</linearGradient>
<polygon fill="url(#SVGID_1__)" points="4.648,15.727 14.942,26.471 25.397,15.714 19.763,15.712 19.759,3.417 10.166,3.416   10.166,15.726 "/>
<line fill="#1D4489" x1="19.759" x2="10.166" y1="3.421" y2="3.42"/>
<polygon fill="#E7FFB9" points="10.166,3.17 19.76,3.171 19.759,3.671 10.166,3.67 10.166,3.17 "/>
<polygon fill="#E7FFB9" points="19.612,15.732 25.505,15.733 25.059,16.233 19.612,16.233 19.612,15.732 "/>
<polygon fill="#E7FFB9" points="4.321,15.726 10.157,15.726 10.157,16.226 4.848,16.226 4.321,15.726 "/>
<linearGradient gradientTransform="matrix(1 1.000000e-004 -1.000000e-004 1 -2.3655 -29.0779)" gradientUnits="userSpaceOnUse" id="SVGID_2__" x1="26.5625" x2="7.7312" y1="50.3418" y2="50.3418">
<stop offset="0" style="stop-color:#AAE535"/>
<stop offset="1" style="stop-color:#5D9C0A"/>
</linearGradient>
<polygon fill="url(#SVGID_2__)" points="25.072,15.713 14.942,26.112 4.925,15.7 4.229,15.701 14.941,26.83 25.771,15.713 "/>
<rect fill="none" height="30" width="30"/>
</g>
</svg>
