<?xml version="1.0" encoding="UTF-8"?>
<!DOCTYPE svg PUBLIC "-//W3C//DTD SVG 1.1 Tiny//EN" "http://www.w3.org/Graphics/SVG/1.1/DTD/svg11-tiny.dtd">
<svg baseProfile="tiny" height="16px" version="1.1" viewBox="0 0 16 16" width="16px" x="0px" xmlns="http://www.w3.org/2000/svg" xmlns:xlink="http://www.w3.org/1999/xlink" y="0px">
<rect fill="none" height="16" width="16"/>
<path d="M9.402,0.102C5.703,2.756,3.136,5.486,0.096,9.423  c-0.053,0.323-0.581,2.854,1.544,5.083c0.422,0.32,1.041,0.957,2.242-0.053c0.42-0.573,1.636-2.156,2-2.666  c0.767-1.167,0.22-1.678-0.597-2.764C5.977,8.334,8.338,5.97,9.027,5.279c0.859,0.607,1.642,1.518,2.734,0.62  c0,0,2.547-1.925,2.775-2.089c1.062-1.219-0.043-2.187,0.025-2.125C12.234-0.574,9.521,0.086,9.402,0.102z" fill="#030303" fill-opacity="0.7" stroke-opacity="0.7"/>
<path d="M13.271,1.917C12.3,1.238,11.16,0.859,9.811,1.051L9.809,1.053c-3.475,2.65-6.211,5.209-8.75,8.753  L1.057,9.809c-0.208,1.717,0.474,2.99,1.085,3.756c0.362,0.434,0.645,0.558,0.933,0.281l2.021-2.689  c0.139-0.174,0.273-0.401,0-0.674c0,0-0.671-0.674-1.008-1.684L8.8,4.082c1.013,0.335,1.685,1.009,1.685,1.009  c0.272,0.274,0.502,0.139,0.674,0c0,0,2.561-1.896,2.691-2.02C14.176,2.756,14.125,2.533,13.271,1.917z" fill="url(#SVGID_1_)"/>
<defs>
<linearGradient gradientTransform="matrix(1 0 0 -1 0.1377 14.834)" gradientUnits="userSpaceOnUse" id="SVGID_1_" x1="7.3892" x2="7.3892" y1="9.834" y2="-13.1661">
<stop offset="0" style="stop-color:#3687FF"/>
<stop offset="1" style="stop-color:#051F7D"/>
</linearGradient>
</defs>
</svg>
