<?xml version="1.0" encoding="UTF-8"?>
<!DOCTYPE svg PUBLIC "-//W3C//DTD SVG 1.1 Tiny//EN" "http://www.w3.org/Graphics/SVG/1.1/DTD/svg11-tiny.dtd">
<svg baseProfile="tiny" height="16px" version="1.1" viewBox="0 0 16 16" width="16px" x="0px" xmlns="http://www.w3.org/2000/svg" xmlns:xlink="http://www.w3.org/1999/xlink" y="0px">
<polygon fill="#030303" fill-opacity="0.7" points="16,14 0,14 0,5.588 3.586,2 16,2 " stroke-opacity="0.7"/>
<polygon fill="none" points="16,16 0.008,16 0,0 15.992,0 "/>
<linearGradient gradientTransform="matrix(1 0 0 -1 0.1377 14.834)" gradientUnits="userSpaceOnUse" id="SVGID_1_" x1="7.8623" x2="7.8623" y1="9.4336" y2="0.2336">
<stop offset="0" style="stop-color:#B2B2B2"/>
<stop offset="1" style="stop-color:#666666"/>
</linearGradient>
<polygon fill="url(#SVGID_1_)" points="4,3 1,6.001 1,13 15,13 15,3 "/>
<linearGradient gradientTransform="matrix(1 0 0 -1 0.1377 14.834)" gradientUnits="userSpaceOnUse" id="SVGID_2_" x1="9.0293" x2="9.0293" y1="9.1592" y2="0.4069">
<stop offset="0" style="stop-color:#FFE23D"/>
<stop offset="0.2239" style="stop-color:#FAD337"/>
<stop offset="0.6537" style="stop-color:#EFAB26"/>
<stop offset="1" style="stop-color:#E48717"/>
</linearGradient>
<path d="M9.459,9.676h3.791V8.159H9.459V9.676z M12.666,6.001H9.459v1.575h3.791V6.584  C13.25,6.262,12.988,6.001,12.666,6.001z M5.084,6.584v0.992h3.791V6.001H5.667C5.344,6.001,5.084,6.262,5.084,6.584z M5.084,9.676  h3.791V8.159H5.084V9.676z M9.459,11.834h3.207c0.322,0,0.584-0.262,0.584-0.584v-0.991H9.459V11.834z M5.084,11.25  c0,0.322,0.26,0.584,0.582,0.584h3.209v-1.575H5.084V11.25z" fill="url(#SVGID_2_)"/>
</svg>
