<?xml version="1.0" encoding="UTF-8"?>
<!DOCTYPE svg PUBLIC "-//W3C//DTD SVG 1.1 Tiny//EN" "http://www.w3.org/Graphics/SVG/1.1/DTD/svg11-tiny.dtd">
<svg baseProfile="tiny" height="81px" version="1.1" viewBox="0 0 81 81" width="81px" x="0px" xmlns="http://www.w3.org/2000/svg" xmlns:xlink="http://www.w3.org/1999/xlink" y="0px">
<path d="M81,75c0,3.3-2.699,6-6,6H6c-3.3,0-6-2.7-6-6V6c0-3.3,2.7-6,6-6h69c3.301,0,6,2.7,6,6  V75z" fill="url(#SVGID_1_)" fill-opacity="0.92" stroke-opacity="0.92"/>
<path d="M75,0.5c3.033,0,5.5,2.467,5.5,5.5v69c0,3.033-2.467,5.5-5.5,5.5H6c-3.033,0-5.5-2.467-5.5-5.5V6  c0-3.033,2.467-5.5,5.5-5.5H75 M75,0H6C2.7,0,0,2.7,0,6v69c0,3.3,2.7,6,6,6h69c3.301,0,6-2.7,6-6V6C81,2.7,78.301,0,75,0L75,0z" fill="#999999"/>
<g>
<g>
<path d="M28.548,20.202c0,1.813-1.471,3.284-3.284,3.284h-7.116c-1.813,0-3.284-1.471-3.284-3.284V16.37    c0-1.814,1.471-3.284,3.284-3.284h7.116c1.813,0,3.284,1.47,3.284,3.284V20.202z" fill="#3C3C3C"/>
<path d="M47.343,20.202c0,1.813-1.471,3.284-3.285,3.284h-7.115c-1.815,0-3.284-1.471-3.284-3.284V16.37    c0-1.814,1.469-3.284,3.284-3.284h7.115c1.814,0,3.285,1.47,3.285,3.284V20.202z" fill="#3C3C3C"/>
<path d="M66.136,20.202c0,1.813-1.471,3.284-3.285,3.284h-7.115c-1.813,0-3.283-1.471-3.283-3.284V16.37    c0-1.814,1.471-3.284,3.283-3.284h7.115c1.814,0,3.285,1.47,3.285,3.284V20.202z" fill="#3C3C3C"/>
<path d="M28.548,35.255c0,1.813-1.471,3.284-3.284,3.284h-7.116c-1.813,0-3.284-1.471-3.284-3.284v-3.831    c0-1.815,1.471-3.284,3.284-3.284h7.116c1.813,0,3.284,1.469,3.284,3.284V35.255z" fill="#3C3C3C"/>
<path d="M47.343,35.255c0,1.813-1.471,3.284-3.285,3.284h-7.115c-1.815,0-3.284-1.471-3.284-3.284v-3.831    c0-1.815,1.469-3.284,3.284-3.284h7.115c1.814,0,3.285,1.469,3.285,3.284V35.255z" fill="#3C3C3C"/>
<path d="M66.136,35.255c0,1.813-1.471,3.284-3.285,3.284h-7.115c-1.813,0-3.283-1.471-3.283-3.284v-3.831    c0-1.815,1.471-3.284,3.283-3.284h7.115c1.814,0,3.285,1.469,3.285,3.284V35.255z" fill="#3C3C3C"/>
<path d="M28.548,50.034c0,1.813-1.471,3.284-3.284,3.284h-7.116c-1.813,0-3.284-1.471-3.284-3.284v-3.831    c0-1.815,1.471-3.284,3.284-3.284h7.116c1.813,0,3.284,1.469,3.284,3.284V50.034z" fill="#3C3C3C"/>
<path d="M47.343,50.034c0,1.813-1.471,3.284-3.285,3.284h-7.115c-1.815,0-3.284-1.471-3.284-3.284v-3.831    c0-1.815,1.469-3.284,3.284-3.284h7.115c1.814,0,3.285,1.469,3.285,3.284V50.034z" fill="#3C3C3C"/>
<path d="M47.343,64.63c0,1.815-1.471,3.284-3.285,3.284h-7.115c-1.815,0-3.284-1.469-3.284-3.284v-3.831    c0-1.813,1.469-3.284,3.284-3.284h7.115c1.814,0,3.285,1.471,3.285,3.284V64.63z" fill="#3C3C3C"/>
<path d="M66.136,50.034c0,1.813-1.471,3.284-3.285,3.284h-7.115c-1.813,0-3.283-1.471-3.283-3.284v-3.831    c0-1.815,1.471-3.284,3.283-3.284h7.115c1.814,0,3.285,1.469,3.285,3.284V50.034z" fill="#3C3C3C"/>
</g>
</g>
<rect fill="none" height="81" width="81"/>
<defs>
<linearGradient gradientUnits="userSpaceOnUse" id="SVGID_1_" x1="40.5005" x2="40.5005" y1="81.3467" y2="41.859">
<stop offset="0" style="stop-color:#F2F2F2"/>
<stop offset="1" style="stop-color:#FFFFFF"/>
</linearGradient>
</defs>
</svg>
