<?xml version="1.0" encoding="UTF-8"?>
<!DOCTYPE svg PUBLIC "-//W3C//DTD SVG 1.1 Tiny//EN" "http://www.w3.org/Graphics/SVG/1.1/DTD/svg11-tiny.dtd">
<svg width="150" height="144" viewBox="0 0 150 144">
<linearGradient id="_11" gradientUnits="userSpaceOnUse" x1="84.45" y1="67.97" x2="106.13" y2="110.68">
<stop stop-color="#A2C2DD" offset="0.1"/>
<stop stop-color="#6C83BB" offset="0.71"/>
<stop stop-color="#003D6D" offset="0.99"/>
</linearGradient>
<path fill="url(#_11)" d="M83.164,14.84C64.956,32.663,41.955,63.163,33.039,94.996c0,2.416,0.792,12.457,2.833,17.791 c2.708,4.791,8.667,13.125,19.625,18.916l5.75,1.4c12.125-5.4,22.251-21.482,24.835-27.482c-4.074-9.443-9.529-17.539-14.085-22.5 c2.015-3.047,12.938-20.372,16.126-25.292c5.945,0.601,5.941,0.609,22.084,2.75c14.125-7.5,23.75-27.167,25.207-32.083 c-4.666-12.083-10.75-16.708-19.895-20.521c-1.771-0.625-4.918-1.125-7.662-1.68C96.152,8.075,88.064,11.716,83.164,14.84z"/>
<linearGradient id="_12" gradientUnits="userSpaceOnUse" x1="73.78" y1="103.6" x2="62.58" y2="85.54">
<stop stop-color="#45B595" offset="0"/>
<stop stop-color="#3C977B" offset="1"/>
</linearGradient>
<path fill="url(#_12)" d="M80.725,103.01c0.961-1.102-11.463-21.91-11.463-21.91l-10.24,13.914 C59.021,95.014,79.76,104.111,80.725,103.01z"/>
<linearGradient id="_13" gradientUnits="userSpaceOnUse" x1="116.5" y1="37.6" x2="98.64" y2="6.55">
<stop stop-color="#C7F9D4" offset="0"/>
<stop stop-color="#BAF1CD" offset="0.43"/>
<stop stop-color="#ADEAC7" offset="1"/>
</linearGradient>
<path fill="url(#_13)" d="M107.613,6.977c-13.172,1.598-24.102,8.347-24.102,8.347c6.295,9.188,7.264,13.491,7.264,13.491 l38.441-1.801C125.193,8.971,113.592,8.663,107.613,6.977z"/>
<linearGradient id="_14" gradientUnits="userSpaceOnUse" x1="124.92" y1="24.62" x2="117.23" y2="10.07">
<stop stop-color="#7ACCA5" offset="0"/>
<stop stop-color="#ADEAC7" offset="1"/>
</linearGradient>
<path fill="url(#_14)" d="M128.672,26.752c-5.613-12.623-13.887-16.85-21.059-19.775c0,0,6.16,0.977,7.59,1.621 c5.219,2.363,13.982,5.855,19.313,19.791C134.518,28.389,128.645,26.783,128.672,26.752z"/>
<linearGradient id="_15" gradientUnits="userSpaceOnUse" x1="39.2" y1="106.56" x2="87.85" y2="7.47">
<stop stop-color="#45B595" offset="0"/>
<stop stop-color="#C7F9D4" offset="1"/>
</linearGradient>
<path fill="url(#_15)" d="M83.514,15.322c2.588-0.176,8.107,4.103,8.035,12.16c-20.404,20.521-44.961,55.852-54.9,85.049 c-3.01-8.824-2.807-17.832-2.807-17.832C39.74,71.262,61.168,37.42,83.514,15.322z"/>
<linearGradient id="_16" gradientUnits="userSpaceOnUse" x1="136.24" y1="27.55" x2="95.99" y2="67.28">
<stop stop-color="#45B595" offset="0"/>
<stop stop-color="#3C977B" offset="1"/>
</linearGradient>
<path fill="url(#_16)" d="M128.672,26.752c-7.303,16.621-14.561,24.877-25.445,31.988l6.65,1.012 c7.885-3.689,19.951-17.324,24.641-31.363C132.584,27.637,128.672,26.752,128.672,26.752z"/>
<linearGradient id="_17" gradientUnits="userSpaceOnUse" x1="81.39" y1="101.58" x2="73.12" y2="87.18">
<stop stop-color="#3C977B" offset="0"/>
<stop stop-color="#2F6F5C" offset="1"/>
</linearGradient>
<path fill="url(#_17)" d="M85.299,105.471c-4.025-9.564-11.68-21.172-16.363-24.17l-0.013,2.645 c3.937,4.721,8.417,11.133,11.651,18.912L85.299,105.471z"/>
<linearGradient id="_18" gradientUnits="userSpaceOnUse" x1="83.5" y1="-31.54" x2="82.76" y2="51.27">
<stop stop-color="#ADEAC7" offset="0"/>
<stop stop-color="#45B595" offset="1"/>
</linearGradient>
<path fill="url(#_18)" d="M128.672,26.752c-12.184-3.65-29.689-2.072-37.123,0.73 c-23.646,22.804-49.275,62.535-55.035,84.924c0,0,6.274,11.846,19.104,18.354c12.082-6.301,20.471-17.049,24.998-27.891 c-4.445-2.479-17.41-9.787-17.41-9.787c7.639-8.201,12.141-17.168,24.479-36.093c5.957,0.518,15.543,1.75,15.543,1.75 C115.617,51.148,124.441,38.457,128.672,26.752z"/>
<linearGradient id="_19" gradientUnits="userSpaceOnUse" x1="61.28" y1="122.87" x2="81.7" y2="111.53">
<stop stop-color="#45B595" offset="0"/>
<stop stop-color="#3C977B" offset="1"/>
</linearGradient>
<path fill="url(#_19)" d="M80.574,102.857c0,0-12.406,22.221-24.958,27.902l5.521,1.357 c10.063-4.279,20.861-18.699,24.162-26.648L80.574,102.857z"/>
<linearGradient id="_20" gradientUnits="userSpaceOnUse" x1="58.61" y1="87" x2="35.65" y2="110.87">
<stop stop-color="#E6EEF4" offset="0"/>
<stop stop-color="#C03A3A" offset="0.44"/>
<stop stop-color="#302D02" offset="0.94"/>
</linearGradient>
<polygon fill="url(#_20)" points="6.529,66.524 79.668,139.426 87.773,131.303 14.639,58.4 "/>
</svg>