<?xml version="1.0" encoding="UTF-8"?>
<!DOCTYPE svg PUBLIC "-//W3C//DTD SVG 1.1 Tiny//EN" "http://www.w3.org/Graphics/SVG/1.1/DTD/svg11-tiny.dtd">
<svg xmlns="http://www.w3.org/2000/svg" xmlns:xlink="http://www.w3.org/1999/xlink" baseProfile="tiny" height="60px" version="1.1" viewBox="0 0 60 60" width="60px" x="0px" y="0px">
<g>
<rect fill="none" height="60" width="60"/>
<polygon fill="#FFFFFF" points="48.238,32.606 48.238,21.683 44.691,25.234 39.162,19.706 35.476,23.391 41.005,28.92    37.318,32.604  "/>
<polygon fill="#FFFFFF" points="19.57,22.312 19.57,33.236 23.118,29.685 28.646,35.212 32.333,31.527 26.804,25.998 30.49,22.313     "/>
<path d="M32.988,9.917c-0.006-0.012-0.016-0.029-0.024-0.041l-0.008,0.006c-0.037-0.04-3.326-3.954-9.407-3.235   c-0.111,0.014-5.901,4.255-10.232,8.584c-6.157,6.158-9.167,10.641-9.17,10.643c-1.195,5.927,3.065,9.674,3.105,9.713   c0,0,1.178,0.982,2.302-0.127l4.418-5.89c0.216-0.267,0.879-1.169,0.046-2.18c-0.04-0.048-1.295-1.36-2.232-3.394l9.583-9.583   c2.034,0.939,3.23,2.115,3.246,2.126c0.046,0.048,1.05,1.144,2.328,0.062l5.889-4.42C33.303,11.745,33.739,11.027,32.988,9.917z" fill="#FFFFFF"/>
<path d="M55.76,41.392c0,0,0.208-2.28-2.392-2.69l-8.405,1.095c-2.304,0.198-2.461,2.254-2.461,2.254   s-0.163,1.431-0.685,3.076l-10.598,0.07c-0.522-1.647-0.546-2.256-0.546-2.256c-0.003-0.013-0.064-2.503-2.458-3.009l-7.932-1.23   c-1.369,0-2.043,0.743-2.6,1.3c-0.938,1.878-1.96,7.034,4.182,12.197c11.074,1.996,25.51,1.14,29.26-0.104   C51.126,52.094,56.591,48.186,55.76,41.392z M50.007,49.714c-10.504,2.051-23.6,0.76-26.814,0.116   c-0.61-0.59-4.187-3.562-3.5-8.149c0.165-0.159,0.341-0.309,0.487-0.354l7.631,1.184c0,0,0,0-0.003,0   c-0.011,0,0.194,0.072,0.264,0.581c0.171,1.262,1.241,4.727,1.241,4.727l14.414-0.094c0,0,1.17-3.695,1.364-5.378l7.745-0.965   c0,0,0.479-0.028,0.489,0.569C53.4,46.651,50.497,49.312,50.007,49.714z" fill="#FFFFFF"/>
</g>
</svg>
