<?xml version="1.0" encoding="utf-8"?>
<!-- Generator: Adobe Illustrator 14.0.0, SVG Export Plug-In  -->
<!DOCTYPE svg PUBLIC "-//W3C//DTD SVG 1.1//EN" "http://www.w3.org/Graphics/SVG/1.1/DTD/svg11.dtd" [
	<!ENTITY ns_flows "http://ns.adobe.com/Flows/1.0/">
]>
<svg version="1.1"
	 xmlns="http://www.w3.org/2000/svg" xmlns:xlink="http://www.w3.org/1999/xlink" xmlns:a="http://ns.adobe.com/AdobeSVGViewerExtensions/3.0/"
	 x="0px" y="0px" width="30px" height="30px" viewBox="0 0 30 30" enable-background="new 0 0 30 30" xml:space="preserve">
<defs>
</defs>
<g opacity="0.5">
	<rect fill="none" width="30" height="30"/>
</g>
<path d="M10.213,8.109c0.054,0.038,0.102,0.08,0.158,0.117c0.002,0.085,0.007,0.529,0.002,0.614
	c-0.004,0.053-0.023,0.109-0.042,0.166c0.089,1.067,0.151,3.104-0.483,4.349c-0.273,0.539-0.615,1.011-1.033,1.424
	c0.305,0.294,0.856,0.707,1.623,1.221h6.824c-0.354-0.427-0.67-0.879-0.912-1.389c-0.469-0.993-0.623-2.394-0.651-3.634
	c-1.034-0.719-2.032-1.543-2.069-2.137c-0.006-0.09,0-0.523,0-0.614c0.621-0.419,1.057-0.91,1.383-1.552
	c0.605-1.188,0.281-3.985,0.281-3.985C15.293,1.45,13.646,0,12.395,0H11.6c-1.254,0-2.902,1.45-2.902,2.689
	c0,0-0.172,1.68,0.018,2.992C9.477,6.346,10.033,7.214,10.213,8.109z"/>
<path d="M19.987,15.797c0.003,0.112,0.009,0.695,0.001,0.807c-0.005,0.076-0.032,0.158-0.061,0.24c0-0.001,0.002-0.002,0.002-0.003
	h4.393c-0.027-0.081-0.055-0.162-0.06-0.237c-0.007-0.118-0.001-0.687,0.001-0.807c0.814-0.549,1.385-1.194,1.814-2.037
	c0.795-1.559,0.369-5.229,0.369-5.229c0-1.626-2.16-3.53-3.805-3.53H21.6c-1.645,0-3.81,1.904-3.81,3.53
	c0,0-0.376,3.652,0.367,5.225C18.564,14.615,19.153,15.25,19.987,15.797z"/>
<path d="M24.677,17.443l-2.552,5.771l-2.551-5.771c-0.549,0.688-1.57,1.464-2.574,2.146V26h13v-4.594
	C29.778,21.114,25.947,19.043,24.677,17.443z"/>
<path d="M7.129,14.841c-0.006-0.09,0-0.523,0-0.614c0.621-0.419,1.057-0.91,1.383-1.552c0.605-1.188,0.281-3.985,0.281-3.985
	C8.793,7.45,7.146,6,5.895,6H5.1C3.846,6,2.197,7.45,2.197,8.689c0,0-0.287,2.783,0.279,3.981c0.311,0.654,0.76,1.139,1.395,1.556
	c0.002,0.085,0.007,0.529,0.002,0.614C3.811,15.82,1.139,17.425,0,18.148V22h1.454l7.665-5.078
	C8.115,16.217,7.166,15.42,7.129,14.841z"/>
<polygon points="11,18.075 2,23.537 11,29 11,26 15,26 15,21 11,21 "/>
</svg>
