<?xml version="1.0" encoding="UTF-8"?>
<!DOCTYPE svg PUBLIC "-//W3C//DTD SVG 1.1 Tiny//EN" "http://www.w3.org/Graphics/SVG/1.1/DTD/svg11-tiny.dtd">
<svg baseProfile="tiny" height="60px" version="1.1" viewBox="0 0 60 60" width="60px" x="0px" xmlns="http://www.w3.org/2000/svg" xmlns:xlink="http://www.w3.org/1999/xlink" y="0px">
<g>
<rect fill="none" fill-opacity="0.5" height="60" stroke-opacity="0.5" width="60"/>
<path d="M38.377,23.988v12.305l2.066,3.207c0.273-0.703,0.43-1.464,0.431-2.263V23.988H38.377z M25.377,40.989   c-2.056-0.005-3.747-1.698-3.752-3.752V23.988h-2.497h-0.002v13.249c0.005,3.446,2.805,6.247,6.251,6.249h1.75v10.558h5.75V43.486   h1.751c0.214,0,0.424-0.011,0.632-0.032l-1.588-2.465H25.377z M29.33,38.531h1.343c0.45,0,0.878-0.078,1.292-0.189L24.33,26.494   v7.037C24.33,36.293,26.568,38.531,29.33,38.531z M30.673,10.604H29.33c-2.434,0-4.456,1.739-4.903,4.042l11.246,17.451V15.604   C35.673,12.843,33.435,10.604,30.673,10.604z" fill="#666666"/>
<polygon fill="#666666" points="14.45,7.471 16.551,6.115 45.55,51.114 43.45,52.47 14.45,7.471  "/>
</g>
</svg>
