<?xml version="1.0" encoding="utf-8"?>
<!-- Generator: Adobe Illustrator 14.0.0, SVG Export Plug-In  -->
<!DOCTYPE svg PUBLIC "-//W3C//DTD SVG 1.1//EN" "http://www.w3.org/Graphics/SVG/1.1/DTD/svg11.dtd" [
	<!ENTITY ns_flows "http://ns.adobe.com/Flows/1.0/">
]>
<svg version="1.1"
	 xmlns="http://www.w3.org/2000/svg" xmlns:xlink="http://www.w3.org/1999/xlink" xmlns:a="http://ns.adobe.com/AdobeSVGViewerExtensions/3.0/"
	 x="0px" y="0px" width="30px" height="30px" viewBox="0 0 30 30" enable-background="new 0 0 30 30" xml:space="preserve">
<defs>
</defs>
<g opacity="0.5">
	<rect fill="none" width="30" height="30"/>
</g>
<path d="M10.212,8.109c0.055,0.038,0.103,0.08,0.159,0.117c0.002,0.085,0.007,0.529,0.002,0.614
	c-0.004,0.054-0.023,0.11-0.042,0.167c0.089,1.068,0.15,3.104-0.483,4.348c-0.273,0.539-0.615,1.011-1.033,1.424
	C9.12,15.073,9.671,15.486,10.438,16h6.139c-0.073-0.132-0.162-0.251-0.228-0.389c-0.603-1.273-0.687-3.219-0.65-4.633
	c-1.034-0.719-2.033-1.543-2.07-2.138c-0.006-0.09,0-0.523,0-0.614c0.621-0.419,1.057-0.91,1.383-1.552
	c0.605-1.188,0.281-3.985,0.281-3.985C15.293,1.45,13.646,0,12.395,0H11.6c-1.254,0-2.902,1.45-2.902,2.689
	c0,0-0.172,1.68,0.017,2.991C9.477,6.346,10.033,7.214,10.212,8.109z"/>
<path d="M19.987,16.797c0.003,0.112,0.009,0.695,0.001,0.807c-0.005,0.076-0.032,0.158-0.061,0.24
	c0.001-0.001,0.002-0.002,0.002-0.003h4.393c-0.027-0.081-0.055-0.162-0.06-0.237c-0.007-0.118-0.001-0.687,0.001-0.807
	c0.814-0.549,1.385-1.194,1.814-2.037c0.795-1.559,0.369-5.229,0.369-5.229c0-1.626-2.16-3.53-3.805-3.53H21.6
	c-1.645,0-3.81,1.904-3.81,3.53c0,0-0.376,3.652,0.367,5.225C18.564,15.615,19.153,16.25,19.987,16.797z"/>
<path d="M24.677,18.443l-2.552,5.771l-2.552-5.771c-0.921,1.158-3.178,2.559-4.44,3.355l1.008,1.008l-1.891,1.891v0.461L16.092,27
	H30v-4.594C29.778,22.114,25.947,20.043,24.677,18.443z"/>
<path d="M7.129,14.841c-0.006-0.09,0-0.523,0-0.614c0.621-0.419,1.057-0.91,1.383-1.552c0.605-1.188,0.281-3.985,0.281-3.985
	C8.793,7.45,7.146,6,5.895,6H5.1C3.846,6,2.197,7.45,2.197,8.689c0,0-0.287,2.783,0.279,3.981c0.311,0.654,0.76,1.139,1.395,1.556
	c0.002,0.085,0.007,0.529,0.002,0.614C3.811,15.82,1.139,17.424,0,18.147V22h2.807l4.143-4.143l2.121,2.121l1.867-1.867
	C9.769,17.37,7.189,15.804,7.129,14.841z"/>
<polygon points="13.313,22.807 11.191,20.686 9.07,22.807 6.949,20.686 4.828,22.807 6.949,24.928 4.828,27.049 6.949,29.171 
	9.07,27.05 11.191,29.171 13.313,27.049 11.191,24.928 "/>
</svg>
