<?xml version="1.0" encoding="UTF-8"?>
<!DOCTYPE svg PUBLIC "-//W3C//DTD SVG 1.1 Tiny//EN" "http://www.w3.org/Graphics/SVG/1.1/DTD/svg11-tiny.dtd">
<svg baseProfile="tiny" height="60px" version="1.1" viewBox="0 0 60 60" width="60px" x="0px" xmlns="http://www.w3.org/2000/svg" xmlns:xlink="http://www.w3.org/1999/xlink" y="0px">
<g>
<rect fill="none" fill-opacity="0.5" height="60" stroke-opacity="0.5" width="60"/>
<g>
<g>
<path d="M20.253,15.567l2.602,2.604v-5.16l4.037,2.156v-4.459l-6.639-3.98V15.567L20.253,15.567z M16.163,35.304     c0.184,0.023,0.367,0.035,0.547,0.035l0,0c1.805-0.016,3.715-1.086,4.656-2.666l0,0c0.271-0.465,0.416-0.936,0.457-1.385     l0.025-0.047v-0.133l0,0c0-0.139,0-3.648,0-4.742v-0.211l-2.6-2.598v5.092l0,0c-0.078-0.004-0.156-0.006-0.234-0.004l0,0     c-1.801,0.012-3.723,1.082-4.662,2.674l0,0c-0.309,0.537-0.471,1.09-0.471,1.619l0,0C13.858,34.155,14.8,35.144,16.163,35.304     L16.163,35.304z" fill="#666666"/>
</g>
<polygon fill="#666666" points="9.358,11.591 11.495,9.454 31.698,29.655 29.562,31.794 9.358,11.591   "/>
</g>
<path d="M54.592,25.338c-0.059-0.357-0.295-1.59-0.837-2.398c-1.101-1.652-2.377-2.627-3.226-3.271   c-2.435-1.863-11.519-3.749-21.144,4.851l1.771,1.771c5.564-4.919,10.563-5.707,13.16-5.707c2.418,0,4.132,0.64,4.695,1.071   c0.758,0.576,1.793,1.364,2.66,2.67c0.153,0.229,0.334,0.788,0.434,1.311c-0.135,1.033-1.224,2.454-3.244,4.236   c-2.063,1.826-3.787,2.688-4.567,2.744c-0.112-0.073-0.452-0.311-0.878-0.847c-0.268-0.339-0.635-1.03-0.859-2.412l-0.344-2.106   l-2.133,0.007c-1.532,0.003-4.006,0.636-7.09,3.622c-3.007,3.124-3.645,5.593-3.652,7.123l-0.013,2.135l2.109,0.345   c1.443,0.236,2.127,0.645,2.407,0.866c0.5,0.396,0.742,0.72,0.84,0.878c-0.103,0.897-1.038,2.643-2.734,4.558   c-1.788,2.03-3.201,3.121-4.213,3.254c-0.513-0.092-1.09-0.277-1.321-0.434c-1.283-0.852-2.051-1.854-2.727-2.736   c-0.817-1.088-2.911-7.435,2.745-15.371l-1.793-1.794c-6.855,9.306-4.186,17.05-2.962,18.655c0.729,0.951,1.704,2.232,3.351,3.328   c0.813,0.541,2.042,0.777,2.4,0.836l0.181,0.027l0.181-0.006c1.765-0.115,3.627-1.375,6.031-4.102   c1.035-1.168,3.37-4.066,3.37-6.299c0.003-0.092-0.002-0.186-0.014-0.281l-0.019-0.18l-0.058-0.17   c-0.075-0.242-0.439-1.119-1.703-2.119c-1.062-0.846-2.514-1.207-3.56-1.379c0.006-0.939,0.431-2.775,2.927-5.352l-0.035,0.012   c2.576-2.494,4.418-2.914,5.358-2.918c0.171,1.053,0.528,2.508,1.371,3.568c1.007,1.264,1.879,1.627,2.122,1.705l0.172,0.061   l0.181,0.016c2.264,0.213,5.355-2.275,6.584-3.359c2.717-2.402,3.979-4.268,4.093-6.049l0.012-0.184L54.592,25.338z" fill="#666666"/>
</g>
</svg>
