<?xml version="1.0" encoding="UTF-8"?>
<!DOCTYPE svg PUBLIC "-//W3C//DTD SVG 1.1 Tiny//EN" "http://www.w3.org/Graphics/SVG/1.1/DTD/svg11-tiny.dtd">
<svg baseProfile="tiny" height="60px" version="1.1" viewBox="0 0 60 60" width="60px" x="0px" xmlns="http://www.w3.org/2000/svg" xmlns:xlink="http://www.w3.org/1999/xlink" y="0px">
<g>
<rect fill="none" height="60" width="60"/>
<g>
<polygon fill="#666666" points="38.165,38.746 32.015,40.565 33.922,34.504 51.582,16.844 55.824,21.086   "/>
<path d="M42,47.675H13.174c-3.033,0-5.501-2.47-5.501-5.503V19.692c0-3.033,2.468-5.501,5.501-5.501H42    c2.604,0,4.87,1.855,5.388,4.409l0.056,0.263L34.964,31.138H20.029l-9.354-9.158v20.194c0,1.379,1.12,2.499,2.498,2.499H42    c1.381,0,2.501-1.12,2.501-2.499v-7.643l3-3v10.641C47.501,45.205,45.034,47.675,42,47.675L42,47.675z M21.35,28.136h12.294    l10.33-9.956c-0.473-0.615-1.2-0.983-1.974-0.983H13.174c-0.829,0-1.585,0.407-2.048,1.084L21.35,28.136L21.35,28.136z" fill="#666666"/>
</g>
</g>
</svg>
