<?xml version="1.0" encoding="UTF-8"?>
<!DOCTYPE svg PUBLIC "-//W3C//DTD SVG 1.1 Tiny//EN" "http://www.w3.org/Graphics/SVG/1.1/DTD/svg11-tiny.dtd">
<svg baseProfile="tiny" height="60px" version="1.1" viewBox="0 0 60 60" width="60px" x="0px" xmlns="http://www.w3.org/2000/svg" xmlns:xlink="http://www.w3.org/1999/xlink" y="0px">
<g>
<rect fill="none" fill-opacity="0.5" height="60" stroke-opacity="0.5" width="60"/>
<g>
<path d="M33.305,22.519c0,2.729,1.895,5.014,4.434,5.633c-0.297-0.846-0.468-1.75-0.477-2.691    c-0.979-0.617-1.635-1.701-1.635-2.941c0-1.918,1.563-3.48,3.482-3.48c0.33,0,0.646,0.063,0.952,0.148    c0.678-0.605,1.452-1.107,2.305-1.465c-0.93-0.633-2.051-1.004-3.257-1.004C35.908,16.716,33.305,19.319,33.305,22.519z     M38.518,31.806c0.27-0.33,0.545-0.639,0.838-0.896c-0.385-0.436-0.721-0.914-1.012-1.426h-2.809c-1.654,0-3.295,3.881-4.42,7.145    c-1.125,3.26-1.709,5.627-1.709,5.627h2.643c0-0.408,0.543-2.563,1.438-5.201c0.971-2.604,1.691-4.162,2.493-5.246h2.538V31.806z     M32.049,28.931c0.269-0.33,0.543-0.639,0.838-0.896c-0.387-0.436-0.723-0.914-1.012-1.426h-2.81c-1.657,0-3.294,3.881-4.42,7.143    s-1.708,5.629-1.708,5.629h2.64c0-0.408,0.543-2.563,1.437-5.201c0.971-2.602,1.69-4.164,2.492-5.248H32.049L32.049,28.931z     M31.268,25.276c-0.297-0.844-0.469-1.75-0.475-2.691c-0.979-0.619-1.637-1.701-1.637-2.939c0-1.92,1.563-3.482,3.479-3.482    c0.334,0,0.648,0.063,0.953,0.148c0.683-0.605,1.455-1.105,2.309-1.465c-0.932-0.633-2.055-1.006-3.262-1.006    c-3.199,0-5.801,2.604-5.801,5.803C26.836,22.37,28.728,24.657,31.268,25.276z" fill="#666666"/>
<path d="M39.778,25.396c0,3.199,2.601,5.803,5.799,5.803c3.201,0,5.808-2.604,5.808-5.803    s-2.604-5.803-5.808-5.803C42.377,19.593,39.778,22.196,39.778,25.396z M45.576,21.913c1.924,0,3.486,1.563,3.486,3.482    s-1.563,3.48-3.486,3.48c-1.918,0-3.48-1.561-3.48-3.48S43.658,21.913,45.576,21.913z M53.481,39.503    c-1.125-3.266-2.765-7.143-4.418-7.143h-3.438h-3.617c-1.658,0-3.295,3.877-4.422,7.143c-1.125,3.26-1.707,5.629-1.707,5.629h2.64    c0-0.41,0.545-2.564,1.438-5.201c0.971-2.605,1.692-4.164,2.491-5.248h3.179h2.993c0.804,1.084,1.523,2.646,2.494,5.248    c0.894,2.639,1.438,4.791,1.438,5.201h2.642C55.192,45.132,54.608,42.763,53.481,39.503z" fill="#666666"/>
<g>
<path d="M18.227,33.763l-1.555-1.557c-0.979,1.18-2.072,2.256-3.264,3.219l1.553,1.553     c-0.91,0.732-1.873,1.404-2.892,1.994l-0.041,0.039h8.403v-8.395C19.787,31.729,19.045,32.776,18.227,33.763z" fill="#666666"/>
<path d="M19.752,22.079c-0.787-0.605-6.068-2.355-12.262,3.779l-0.076,0.074     C1.28,32.126,3.032,37.409,3.635,38.194c0.438,0.574,0.933,1.221,1.771,1.785c0.207,0.127,0.6,0.285,1.021,0.275     s1.387-0.637,2.596-1.959c1.211-1.322,1.721-2.387,1.834-2.887l0.064-0.285l-0.189-0.223c-0.119-0.145-0.262-0.277-0.43-0.41     c-0.715-0.57-2.205-0.658-2.223-0.658l-0.229-0.014L7.74,33.616c-0.046-0.086-1.137-2.184,1.998-5.438     c3.254-3.135,5.35-2.043,5.436-1.996l0.203,0.111l0.014,0.229c0,0.018,0.088,1.508,0.658,2.223c0.131,0.17,0.268,0.309,0.41,0.43     l0.223,0.189l0.283-0.064c0.5-0.113,1.567-0.623,2.89-1.834c1.321-1.211,1.948-2.174,1.959-2.596     c0.009-0.422-0.15-0.814-0.277-1.021C20.971,23.009,20.325,22.515,19.752,22.079z" fill="#666666"/>
</g>
</g>
</g>
</svg>
