<?xml version="1.0" ?>
<!DOCTYPE svg  PUBLIC '-//W3C//DTD SVG 1.1 Tiny//EN'  'http://www.w3.org/Graphics/SVG/1.1/DTD/svg11-tiny.dtd'>
<svg baseProfile="tiny" height="30" viewBox="0 0 30 30" width="30" xmlns="http://www.w3.org/2000/svg" xmlns:xlink="http://www.w3.org/1999/xlink">

<rect fill="none" height="30" width="30"/>

<path d="M24.56,4.586l-2.121-2.121c-1.953-1.953-5.119-1.953-7.071,0l-4.95,4.95-1.42-1.415-2.121,2.121,1.414,1.415-2.828,2.828c-0.791,0.791-1.245,1.782-1.396,2.81l-0.019,0.019,0.016,0.016c-0.209,1.499,0.245,3.074,1.398,4.228l2.121,2.121c1.153,1.153,2.728,1.607,4.227,1.398l0.016,0.016,0.019-0.019c0.059-0.009,0.117-0.007,0.175-0.017v3.06h-5c-0.553,0-1,0.447-1,1v2h15v-2c0-0.553-0.447-1-1-1h-5v-4.808l2.464-2.464,1.414,1.414,2.121-2.121-1.414-1.414,4.95-4.95c1.96-1.956,1.96-5.121,0.01-7.074zm-11.04,9.914c-1.104,0-2-0.896-2-2s0.896-2,2-2,2,0.896,2,2-0.89,2-2,2zm9.62-4.26l-4.95,4.95-1.419-1.42c0.155-0.396,0.248-0.823,0.248-1.273,0-1.93-1.57-3.5-3.5-3.5-0.45,0-0.878,0.093-1.273,0.248l-0.42-0.419,4.95-4.95c1.17-1.17,3.073-1.17,4.242,0l2.12,2.121c1.17,1.17,1.17,3.073,0,4.24z"/>

</svg>