<?xml version="1.0" encoding="utf-8"?>
<!-- Generator: Adobe Illustrator 14.0.0, SVG Export Plug-In  -->
<!DOCTYPE svg PUBLIC "-//W3C//DTD SVG 1.1//EN" "http://www.w3.org/Graphics/SVG/1.1/DTD/svg11.dtd" [
	<!ENTITY ns_flows "http://ns.adobe.com/Flows/1.0/">
]>
<svg version="1.1"
	 xmlns="http://www.w3.org/2000/svg" xmlns:xlink="http://www.w3.org/1999/xlink" xmlns:a="http://ns.adobe.com/AdobeSVGViewerExtensions/3.0/"
	 x="0px" y="0px" width="30px" height="30px" viewBox="0 0 30 30" enable-background="new 0 0 30 30" xml:space="preserve">
<defs>
</defs>
<g opacity="0.5">
	<rect fill="none" width="30" height="30"/>
</g>
<path d="M27.578,6.523l-7.36,4.248c-0.363,0.152-0.77,0.057-0.952-0.256l-1.278-2.142c-0.001,0.002-0.004,0.007-0.006,0.008
	c0-0.001,0-0.003,0-0.004c-1.121,0.582-3.618,2.223-5.188,3.79c-1.632,1.635-3.15,3.394-4.417,5.576c0,0-0.006,0.008-0.008,0.01
	c0.009,0.002,0.018,0.002,0.027,0.003l2.725,1.743c0.344,0.222,0.412,0.706,0.158,1.078L6.485,27.62
	c-0.253,0.37-0.735,0.491-1.08,0.268c0,0-0.298-0.194-1.021-0.83c-0.001,0-0.002,0-0.003,0c-0.394-0.347-0.411-0.476-0.785-0.925
	c-0.319-0.385-0.573-0.765-0.783-1.114c-0.001-0.001-0.004,0-0.005-0.002c-0.043-0.071-0.081-0.139-0.119-0.207
	c-0.005-0.009-0.01-0.018-0.015-0.024c-0.391-0.698-0.56-1.211-0.56-1.211c-0.178-0.688-0.252-3.057,0.563-5.205
	c0.52-1.364,3.24-5.672,6.42-8.854c3.181-3.182,8.124-6.349,10.3-7.005s3.903-0.556,4.416-0.374c0,0,1.326,0.434,2.531,1.536
	c0.401,0.367,0.439,0.382,0.75,0.765c0.002,0.003,0.002,0.006,0.003,0.008c-0.001-0.002-0.003-0.004-0.005-0.005
	c0.616,0.757,0.818,1.062,0.818,1.062C28.11,5.844,27.962,6.304,27.578,6.523z"/>
<path d="M24.001,11L18,19h1.963h2v2.522V25H20v-5h-0.037H16v4v1l0,0c0,3,2.775,5,5.5,5s5.5-2,5.5-5v-6h3L24.001,11z"/>
</svg>
