<?xml version="1.0" encoding="utf-8"?>
<!-- Generator: Adobe Illustrator 14.0.0, SVG Export Plug-In  -->
<!DOCTYPE svg PUBLIC "-//W3C//DTD SVG 1.1//EN" "http://www.w3.org/Graphics/SVG/1.1/DTD/svg11.dtd" [
	<!ENTITY ns_flows "http://ns.adobe.com/Flows/1.0/">
]>
<svg version="1.1"
	 xmlns="http://www.w3.org/2000/svg" xmlns:xlink="http://www.w3.org/1999/xlink" xmlns:a="http://ns.adobe.com/AdobeSVGViewerExtensions/3.0/"
	 x="0px" y="0px" width="30px" height="30px" viewBox="0 0 30 30" enable-background="new 0 0 30 30" xml:space="preserve">
<defs>
</defs>
<g opacity="0.5">
	<rect fill="none" width="30" height="30"/>
</g>
<path d="M15.691,11.542c1.257-0.96,2.563-1.786,3.289-2.164c0.001,0.001,0,0.003,0.001,0.004c0.001-0.001,0.005-0.006,0.007-0.008
	l1.277,2.142c0.183,0.313,0.589,0.408,0.953,0.256l7.359-4.248c0.383-0.22,0.533-0.68,0.334-1.022c0,0-0.203-0.305-0.818-1.062
	c0.002,0.001,0.002,0.003,0.004,0.005c-0.002-0.002,0-0.005-0.002-0.008c-0.312-0.383-0.35-0.397-0.751-0.765
	c-1.204-1.103-2.53-1.536-2.53-1.536c-0.514-0.182-2.241-0.282-4.417,0.374c-1.677,0.506-4.996,2.505-7.888,4.851L15.691,11.542z"/>
<path d="M9.396,18.757c-0.01-0.001-0.019-0.001-0.027-0.003c0.002-0.002,0.008-0.01,0.008-0.01c0.652-1.125,1.375-2.136,2.143-3.077
	l-3.205-3.205c-2.367,2.794-4.219,5.808-4.637,6.907c-0.814,2.148-0.74,4.517-0.563,5.205c0,0,0.169,0.513,0.56,1.211
	c0.005,0.007,0.01,0.016,0.015,0.024c0.038,0.068,0.076,0.136,0.119,0.207c0.001,0.002,0.004,0.001,0.005,0.002
	c0.21,0.35,0.464,0.729,0.783,1.114c0.374,0.449,0.392,0.578,0.785,0.925c0.001,0,0.002,0,0.003,0
	c0.723,0.636,1.021,0.83,1.021,0.83c0.345,0.224,0.827,0.103,1.08-0.268l4.794-7.042c0.254-0.372,0.186-0.856-0.158-1.078
	L9.396,18.757z"/>
<rect x="13.74" y="-3.24" transform="matrix(0.7066 -0.7076 0.7076 0.7066 -6.0774 14.6889)" width="1.867" height="35.826"/>
</svg>
