<?xml version="1.0" encoding="UTF-8"?>
<!DOCTYPE svg PUBLIC "-//W3C//DTD SVG 1.1 Tiny//EN" "http://www.w3.org/Graphics/SVG/1.1/DTD/svg11-tiny.dtd">
<svg baseProfile="tiny" height="32px" version="1.1" viewBox="0 -7 32 32" width="32px" x="0px" xmlns="http://www.w3.org/2000/svg" xmlns:xlink="http://www.w3.org/1999/xlink" y="0px">
<polygon points="1,6 1.5,8 5,8 5,6 "/>
<polygon points="2,10 2.5,12 5,12 5,10 "/>
<polygon points="0,2 0.5,4 5,4 5,2 "/>
<path d="M31,0H7C6.449,0,6,0.45,6,1v17c0,0.55,0.449,1,1,1h24c0.549,0,1-0.45,1-1V1C32,0.45,31.549,0,31,0z M19,12.146l3.447-1.991  L29.293,17H8.707l6.846-6.846L19,12.146z M23.344,9.637L30,5.794v10.499L23.344,9.637z M8,2h22v1.484L19,9.836L8,3.484V2z   M14.656,9.637L8,16.293V5.794L14.656,9.637z"/>
</svg>
