<?xml version="1.0" encoding="UTF-8"?>
<!DOCTYPE svg PUBLIC "-//W3C//DTD SVG 1.1 Tiny//EN" "http://www.w3.org/Graphics/SVG/1.1/DTD/svg11-tiny.dtd">
<svg baseProfile="tiny" height="32px" version="1.1" viewBox="-7 -3 32 32" width="32px" x="0px" xmlns="http://www.w3.org/2000/svg" xmlns:xlink="http://www.w3.org/1999/xlink" y="0px">
<path d="M17,0H1C0.449,0,0,0.45,0,1v24c0,0.55,0.449,1,1,1h16c0.549,0,1-0.45,1-1V1C18,0.45,17.549,0,17,0z M4,23H3  c-0.551,0-1-0.45-1-1s0.449-1,1-1h1c0.549,0,1,0.45,1,1S4.549,23,4,23z M11,23c0,0.55-0.451,1-1,1H8c-0.551,0-1-0.45-1-1v-2  c0-0.55,0.449-1,1-1h2c0.549,0,1,0.45,1,1V23z M15,23h-1c-0.551,0-1-0.45-1-1s0.449-1,1-1h1c0.549,0,1,0.45,1,1S15.549,23,15,23z   M16,18H2V2h14V18z"/>
</svg>
