<?xml version="1.0" encoding="utf-8"?>
<!-- Generator: Adobe Illustrator 14.0.0, SVG Export Plug-In  -->
<!DOCTYPE svg PUBLIC "-//W3C//DTD SVG 1.1//EN" "http://www.w3.org/Graphics/SVG/1.1/DTD/svg11.dtd" [
	<!ENTITY ns_flows "http://ns.adobe.com/Flows/1.0/">
]>
<svg version="1.1"
	 xmlns="http://www.w3.org/2000/svg" xmlns:xlink="http://www.w3.org/1999/xlink" xmlns:a="http://ns.adobe.com/AdobeSVGViewerExtensions/3.0/"
	 x="0px" y="0px" width="30px" height="30px" viewBox="0 0 30 30" enable-background="new 0 0 30 30" xml:space="preserve">
<defs>
</defs>
<g opacity="0.5">
	<rect fill="none" width="30" height="30"/>
</g>
<path d="M28.908,18.236l-7.671-2.057c-0.341-0.139-0.547-0.472-0.461-0.798l0.571-2.261c-0.002,0.001-0.008,0.001-0.01,0.001
	c0.001-0.001,0.002-0.002,0.002-0.003c-1.125-0.355-3.859-0.922-5.933-0.923c-2.159,0.001-4.325,0.161-6.604,0.766
	c0,0-0.009,0.002-0.012,0.002c0.006,0.007,0.012,0.013,0.017,0.02l0.648,2.953c0.081,0.374-0.194,0.738-0.608,0.816l-7.822,1.486
	c-0.412,0.076-0.811-0.162-0.891-0.537c0,0-0.068-0.325-0.126-1.224c-0.001,0-0.001,0-0.001-0.002
	c-0.031-0.489,0.042-0.586,0.092-1.13c0.043-0.466,0.126-0.885,0.219-1.254c0-0.001-0.003-0.003-0.002-0.005
	c0.019-0.074,0.039-0.145,0.059-0.216c0.002-0.009,0.005-0.018,0.006-0.025c0.203-0.72,0.43-1.17,0.43-1.17
	c0.338-0.572,1.855-2.187,3.813-3.068C5.867,9.05,10.514,8.001,14.718,8c4.205-0.001,9.565,1.174,11.438,2.178
	s2.946,2.212,3.165,2.671c0,0,0.59,1.164,0.658,2.688c0.023,0.509,0.037,0.543-0.01,1.002c0,0.003-0.003,0.004-0.003,0.007
	c0-0.003,0-0.004,0-0.007c-0.094,0.907-0.161,1.243-0.161,1.243C29.71,18.14,29.308,18.344,28.908,18.236z"/>
</svg>
